<?xml version="1.0" encoding="iso-8859-1"?>
<!-- Generator: Adobe Illustrator 19.1.0, SVG Export Plug-In . SVG Version: 6.00 Build 0)  -->
<svg version="1.1" id="Capa_1" xmlns="http://www.w3.org/2000/svg" xmlns:xlink="http://www.w3.org/1999/xlink" x="0px" y="0px"
	 viewBox="0 0 65.005 65.005" style="enable-background:new 0 0 65.005 65.005;" xml:space="preserve">
<g>
	<g id="group-97svg">
		<path id="path-1_98_" style="fill:#EDC951;" d="M24.04,5h24.5c2.2,0,3.962,1.3,3.962,3.501v52.003
			c0,2.201-1.762,4.501-3.962,4.501h-37c-2.209,0-4.038-2.292-4.038-4.501V24.571L24.04,5z"/>
		<path id="path-2_98_" style="fill:#8B71B5;" d="M8.727,23.002H20.04c2.21,0,4.462-1.791,4.462-4.001V4.5L8.727,23.002z"/>
		<path id="path-3_98_" d="M43.54,63.004h-37c-2.919,0-5.038-2.313-5.038-5.5V21.571c0-0.332,0.11-0.655,0.313-0.918L17.354,0.582
			C17.638,0.215,18.076,0,18.54,0h25c3.176,0,5.962,2.57,5.962,5.5v52.004C49.502,60.434,46.716,63.004,43.54,63.004z M4.502,22.084
			v35.42c0,1.153,0.534,2.5,2.038,2.5h37c1.495,0,2.962-1.238,2.962-2.5V5.5c0-1.261-1.467-2.5-2.962-2.5H19.275L4.502,22.084z"/>
		<path id="path-4_98_" d="M14.169,22.002H3.393c-0.582,0-1.112-0.336-1.359-0.864c-0.247-0.526-0.167-1.148,0.205-1.596
			l15.61-18.786c0.403-0.486,1.067-0.664,1.663-0.452c0.594,0.215,0.99,0.779,0.99,1.411v14.306
			C20.502,18.983,17.306,22.002,14.169,22.002z M6.589,19.001h7.58c1.433,0,3.333-1.699,3.333-2.98V5.868L6.589,19.001z"/>
		<path id="path-5_96_" style="fill:#8B71B5;" d="M61.502,37.003c0,2.209-1.791,4-4,4h-19c-2.209,0-4-1.791-4-4v-9.001
			c0-2.209,1.791-4,4-4h19c2.209,0,4,1.791,4,4V37.003z"/>
		<path id="path-6_90_" d="M58.002,42.003h-19c-3.032,0-5.5-2.468-5.5-5.5v-9.001c0-3.032,2.468-5.5,5.5-5.5h19
			c3.032,0,5.5,2.468,5.5,5.5v9.001C63.502,39.535,61.035,42.003,58.002,42.003z M39.002,25.002c-1.379,0-2.5,1.121-2.5,2.5v9.001
			c0,1.379,1.121,2.5,2.5,2.5h19c1.379,0,2.5-1.121,2.5-2.5v-9.001c0-1.379-1.121-2.5-2.5-2.5H39.002z"/>
		<path id="path-7_59_" style="fill:#EDC951;" d="M44.029,29.948h-3.266v1.758h3.008c0.22,0,0.386,0.05,0.495,0.15
			c0.109,0.098,0.164,0.229,0.164,0.392c0,0.163-0.054,0.295-0.161,0.399c-0.108,0.102-0.274,0.153-0.498,0.153h-3.008v2.037h3.379
			c0.227,0,0.399,0.052,0.514,0.158c0.116,0.106,0.174,0.247,0.174,0.423c0,0.169-0.058,0.306-0.174,0.413
			c-0.115,0.105-0.287,0.158-0.514,0.158h-3.941c-0.316,0-0.543-0.07-0.681-0.21c-0.138-0.14-0.207-0.366-0.207-0.679v-5.381
			c0-0.208,0.03-0.379,0.092-0.51c0.062-0.133,0.158-0.228,0.29-0.289c0.132-0.06,0.301-0.09,0.506-0.09h3.828
			c0.231,0,0.403,0.051,0.515,0.154c0.112,0.102,0.169,0.237,0.169,0.403c0,0.169-0.057,0.305-0.169,0.408
			C44.432,29.897,44.26,29.948,44.029,29.948z"/>
		<path id="path-8_44_" style="fill:#EDC951;" d="M45.719,34.597l1.601-2.339l-1.347-2.08c-0.127-0.202-0.223-0.375-0.286-0.52
			c-0.064-0.145-0.095-0.284-0.095-0.418c0-0.136,0.06-0.259,0.182-0.369c0.123-0.108,0.272-0.163,0.448-0.163
			c0.201,0,0.358,0.06,0.47,0.179c0.113,0.118,0.268,0.339,0.467,0.661l1.074,1.738l1.148-1.738
			c0.094-0.146,0.175-0.271,0.241-0.376c0.067-0.105,0.131-0.19,0.193-0.259c0.062-0.068,0.131-0.12,0.207-0.153
			c0.078-0.035,0.166-0.052,0.267-0.052c0.182,0,0.331,0.055,0.446,0.163c0.117,0.11,0.174,0.239,0.174,0.389
			c0,0.218-0.126,0.515-0.376,0.889l-1.411,2.109l1.519,2.339c0.136,0.205,0.235,0.375,0.298,0.511
			c0.061,0.135,0.092,0.263,0.092,0.383c0,0.114-0.028,0.218-0.083,0.312c-0.055,0.095-0.134,0.169-0.234,0.225
			c-0.102,0.056-0.215,0.083-0.342,0.083c-0.137,0-0.253-0.028-0.347-0.085c-0.094-0.058-0.171-0.128-0.229-0.213
			c-0.059-0.085-0.168-0.249-0.327-0.493l-1.26-1.983l-1.338,2.042c-0.104,0.163-0.179,0.276-0.223,0.341
			c-0.044,0.066-0.096,0.129-0.158,0.191c-0.062,0.061-0.135,0.11-0.219,0.146c-0.085,0.036-0.185,0.054-0.298,0.054
			c-0.176,0-0.322-0.054-0.438-0.161c-0.115-0.108-0.173-0.264-0.173-0.469C45.362,35.24,45.48,34.946,45.719,34.597z"/>
		<path id="path-9_36_" style="fill:#EDC951;" d="M56.739,29.948h-3.266v1.758h3.007c0.221,0,0.387,0.05,0.496,0.15
			c0.109,0.098,0.164,0.229,0.164,0.392c0,0.163-0.054,0.295-0.161,0.399c-0.108,0.102-0.274,0.153-0.499,0.153h-3.007v2.037h3.379
			c0.227,0,0.399,0.052,0.514,0.158c0.116,0.106,0.174,0.247,0.174,0.423c0,0.169-0.058,0.306-0.174,0.413
			c-0.115,0.105-0.287,0.158-0.514,0.158h-3.941c-0.316,0-0.543-0.07-0.681-0.21s-0.208-0.366-0.208-0.679v-5.381
			c0-0.208,0.031-0.379,0.093-0.51c0.062-0.133,0.158-0.228,0.29-0.289c0.132-0.06,0.301-0.09,0.506-0.09h3.828
			c0.231,0,0.403,0.051,0.515,0.154c0.112,0.102,0.169,0.237,0.169,0.403c0,0.169-0.057,0.305-0.169,0.408
			C57.142,29.897,56.97,29.948,56.739,29.948z"/>
	</g>
</g>
<g>
</g>
<g>
</g>
<g>
</g>
<g>
</g>
<g>
</g>
<g>
</g>
<g>
</g>
<g>
</g>
<g>
</g>
<g>
</g>
<g>
</g>
<g>
</g>
<g>
</g>
<g>
</g>
<g>
</g>
</svg>
