<?xml version="1.0" encoding="utf-8"?>
<!-- Generator: Adobe Illustrator 21.0.2, SVG Export Plug-In . SVG Version: 6.00 Build 0)  -->
<svg version="1.1" id="Capa_1" xmlns="http://www.w3.org/2000/svg" xmlns:xlink="http://www.w3.org/1999/xlink" x="0px" y="0px"
	 viewBox="0 0 620.3 620.3" style="enable-background:new 0 0 620.3 620.3;" xml:space="preserve">
<style type="text/css">
	.st0{fill:#FFFFFF;}
	.st1{fill:#006660;}
</style>
<g>
	<g>
		<g>
			<circle class="st0" cx="309" cy="196" r="152"/>
			<path class="st1" d="M363.4,236.6l-13.5,13.2c-9.8-11.2-24-18.5-40-19.3c-16.8-0.8-32.3,5.9-43.2,17.1l-13.2-13.4
				c14.6-14.8,35-23.6,57.4-22.5C331.7,212.8,350.3,222.2,363.4,236.6z M226.2,206.6l14.8,15.1c18-18.1,43.2-28.9,70.6-27.6
				c25.6,1.2,48.3,12.6,64.5,30.2l15-14.8c-19.7-21.2-47.4-35-78.5-36.5C279,171.3,248.2,184.5,226.2,206.6z M308.4,244.5
				c-14.3,0-25.9,11.6-25.9,25.8c0,14.3,11.6,25.9,25.9,25.9c14.3,0,25.8-11.6,25.8-25.9C334.2,256.1,322.7,244.5,308.4,244.5z
				 M199.5,179.5l15.7,16c25.1-24.9,60-39.8,98.1-38c35.2,1.7,66.5,17.2,89,41l16-15.7c-26.3-27.7-62.8-45.8-103.9-47.7
				C269.8,133,228.9,150.3,199.5,179.5z M505.5,195.4c0,107.9-195.4,424.9-195.4,424.9S114.7,303.3,114.7,195.4
				C114.7,87.5,202.2,0,310.1,0S505.5,87.5,505.5,195.4z M461.3,195.4c0-83.4-67.9-151.2-151.2-151.2
				c-83.4,0-151.2,67.8-151.2,151.2c0,83.3,67.8,151.2,151.2,151.2C393.5,346.6,461.3,278.7,461.3,195.4z M317.1,97.2
				c-54.8-2.6-105.2,18.6-141.4,54.4l15.3,15.6c32-31.7,76.6-50.4,125-48.1c44.6,2,84.3,21.6,112.9,51.7l15.6-15.4
				C412.2,121.6,367.4,99.6,317.1,97.2z"/>
		</g>
	</g>
</g>
</svg>
