<?xml version="1.0" encoding="utf-8"?>
<!-- Generator: Adobe Illustrator 24.2.3, SVG Export Plug-In . SVG Version: 6.00 Build 0)  -->
<svg version="1.1" id="Layer_1" xmlns="http://www.w3.org/2000/svg" xmlns:xlink="http://www.w3.org/1999/xlink" x="0px" y="0px"
	 viewBox="0 0 55 80" style="enable-background:new 0 0 55 80;" xml:space="preserve">
<style type="text/css">
	.st0{display:none;opacity:0.63;}
	.st1{display:inline;}
	.st2{fill:#E0E0E2;}
	.st3{stroke:#EFF1F2;stroke-width:27;stroke-linejoin:round;stroke-miterlimit:10;}
	.st4{display:inline;fill:#029299;}
	.st5{fill:#3D9AE2;}
	.st6{fill:#EFF1F2;}
	.st7{fill:#029299;}
	.st8{fill:#0786AD;}
	.st9{fill:#00465B;}
</style>
<g id="Layer_1_1_" class="st0">
	<g class="st1">
		<g id="not-needed">
			<path class="st2" d="M-88.8-137.8h232.5v383H-88.8V-137.8z"/>
		</g>
		<path id="shade_out" class="st3" d="M143.7-144.6H95.8l-136.6-0.1h-47.9c-3.8,0-6.8,3.1-6.8,6.8V28.3h0.4V252h245.3V46.8h0.4
			v-184.6C150.6-141.6,147.5-144.6,143.7-144.6z M20.7,238.3h-6.8v-54.7h6.8V238.3z M41.2,238.3h-6.8v-54.7h6.8V238.3z M136.9,238.3
			H54.8v-61.5c0-3.8-3.1-6.8-6.8-6.8H7c-3.8,0-6.8,3.1-6.8,6.8v61.5h-82.1V-89.9h218.8L136.9,238.3L136.9,238.3z M136.9-103.6H-81.9
			V-131h218.8V-103.6L136.9-103.6z"/>
	</g>
	<g class="st1">
		<g>
			<path class="st2" d="M-88.8-137.8h232.5v383H-88.8V-137.8z"/>
		</g>
		<path d="M143.7-144.6H95.8l-136.6-0.1h-47.9c-3.8,0-6.8,3.1-6.8,6.8V28.3h0.4V252h245.3V46.8h0.4v-184.6
			C150.6-141.6,147.5-144.6,143.7-144.6z M136.9,238.3H54.8v-61.5c0-3.8-3.1-6.8-6.8-6.8H7c-3.8,0-6.8,3.1-6.8,6.8v61.5h-82.1V-89.9
			h218.8L136.9,238.3L136.9,238.3z"/>
	</g>
	<path id="door" class="st4" d="M43.7,238.3H11.5c-0.3,0-0.5-0.2-0.5-0.5v-53.7c0-0.3,0.2-0.5,0.5-0.5h32.2c0.3,0,0.5,0.2,0.5,0.5
		v53.7C44.2,238.1,43.9,238.3,43.7,238.3z"/>
	<path id="roof" class="st4" d="M136.1-103.6H-81.1c-0.4,0-0.8-0.3-0.8-0.8v-25.8c0-0.4,0.3-0.8,0.8-0.8h217.3
		c0.4,0,0.8,0.3,0.8,0.8v25.9C136.9-103.9,136.6-103.6,136.1-103.6z"/>
	<g id="windows" class="st1">
		<path class="st5" d="M7,63.6h41v41H7V63.6z"/>
		<path class="st5" d="M-61.4,63.6h41v41h-41V63.6z"/>
		<path class="st5" d="M75.4,63.6h41v41h-41C75.4,104.6,75.4,63.6,75.4,63.6z"/>
		<path class="st5" d="M7,2.1h41v41H7V2.1z"/>
		<path class="st5" d="M-61.4,2.1h41v41h-41V2.1z"/>
		<path class="st5" d="M75.4,2.1h41v41h-41C75.4,43.1,75.4,2.1,75.4,2.1z"/>
		<path class="st5" d="M7-59.5h41v41H7V-59.5z"/>
		<path class="st5" d="M-61.4-59.5h41v41h-41V-59.5z"/>
		<path class="st5" d="M75.4-59.5h41v41h-41C75.4-18.5,75.4-59.5,75.4-59.5z"/>
	</g>
</g>
<g id="building">
	<g id="building_1_">
		<g>
			<g id="frame_1_">
				<path id="frame" d="M7,75.4c-1,0-1.7-0.8-1.7-1.7V6.3c0-1,0.8-1.7,1.7-1.7h41c1,0,1.7,0.8,1.7,1.7v67.3c0,1-0.8,1.7-1.7,1.7
					L7,75.4L7,75.4z"/>
				<path id="out-shade" class="st6" d="M48.1,5.4c0.5,0,0.9,0.4,0.9,0.9v67.3c0,0.5-0.4,0.9-0.9,0.9H7c-0.5,0-0.9-0.4-0.9-0.9V6.3
					c0-0.5,0.4-0.9,0.9-0.9L48.1,5.4 M48.1,3.7H7c-1.5,0-2.6,1.2-2.6,2.6v67.3c0,1.5,1.2,2.6,2.6,2.6h41c1.5,0,2.6-1.2,2.6-2.6V6.3
					C50.7,4.9,49.5,3.7,48.1,3.7L48.1,3.7z"/>
			</g>
			<path id="inner-wall" class="st6" d="M46.4,72.1H8.6c-0.1,0-0.2,0-0.2-0.2V17.5c0-0.1,0-0.2,0.2-0.2h37.7c0.1,0,0.2,0,0.2,0.2
				v54.4C46.6,72,46.5,72.1,46.4,72.1z"/>
			<path class="st7" d="M46.4,14.5H8.6c-0.1,0-0.2,0-0.2-0.2V8.4c0-0.1,0-0.2,0.2-0.2h37.7c0.1,0,0.2,0,0.2,0.2v5.9
				C46.6,14.4,46.5,14.5,46.4,14.5z"/>
		</g>
		<g id="windows_1_">
			<g>
				<path class="st8" d="M24,43.4h7c0,0,0.1,0,0.1,0.1v7c0,0,0,0.1-0.1,0.1h-7c0,0-0.1,0-0.1-0.1L24,43.4C24,43.5,24,43.4,24,43.4z"
					/>
				<path class="st9" d="M31,51h-7c-0.3,0-0.5-0.2-0.5-0.5v-7c0-0.3,0.2-0.5,0.5-0.5h7c0.3,0,0.5,0.2,0.5,0.5v7
					C31.5,50.8,31.3,51,31,51z M24.4,50.1h6.3v-6.3h-6.3V50.1z"/>
			</g>
			<g>
				<path class="st8" d="M12.1,43.4h7c0,0,0.1,0,0.1,0.1v7c0,0,0,0.1-0.1,0.1h-7c0,0-0.1,0-0.1-0.1L12.1,43.4
					C12,43.5,12.1,43.4,12.1,43.4z"/>
				<path class="st9" d="M19.1,51h-7c-0.3,0-0.5-0.2-0.5-0.5v-7c0-0.3,0.2-0.5,0.5-0.5h7c0.3,0,0.5,0.2,0.5,0.5v7
					C19.6,50.8,19.4,51,19.1,51z M12.5,50.1h6.3v-6.3h-6.3C12.5,43.8,12.5,50.1,12.5,50.1z"/>
			</g>
			<g>
				<path class="st8" d="M35.9,43.4h7c0,0,0.1,0,0.1,0.1v7c0,0,0,0.1-0.1,0.1h-7c0,0-0.1,0-0.1-0.1L35.9,43.4
					C35.9,43.5,35.9,43.4,35.9,43.4z"/>
				<path class="st9" d="M42.9,51h-7c-0.3,0-0.5-0.2-0.5-0.5v-7c0-0.3,0.2-0.5,0.5-0.5h7c0.3,0,0.5,0.2,0.5,0.5v7
					C43.4,50.8,43.2,51,42.9,51z M36.3,50.1h6.3v-6.3h-6.3V50.1z"/>
			</g>
			<g>
				<path class="st8" d="M24.2,32.7h6.6c0.1,0,0.2,0.1,0.2,0.2v6.6c0,0.1-0.1,0.2-0.2,0.2h-6.6c-0.1,0-0.2-0.1-0.2-0.2V33
					C24,32.9,24.1,32.7,24.2,32.7z"/>
				<path class="st9" d="M30.8,40.3h-6.6c-0.4,0-0.7-0.3-0.7-0.7V33c0-0.4,0.3-0.7,0.7-0.7h6.6c0.4,0,0.7,0.3,0.7,0.7v6.6
					C31.5,40,31.2,40.3,30.8,40.3z M24.4,39.4h6.3v-6.3h-6.3V39.4z"/>
			</g>
			<g>
				<path class="st8" d="M12.1,32.7h7c0,0,0.1,0,0.1,0.1v7c0,0,0,0.1-0.1,0.1h-7c0,0-0.1,0-0.1-0.1L12.1,32.7
					C12,32.8,12.1,32.7,12.1,32.7z"/>
				<path class="st9" d="M19.1,40.3h-7c-0.3,0-0.5-0.2-0.5-0.5v-7c0-0.3,0.2-0.5,0.5-0.5h7c0.3,0,0.5,0.2,0.5,0.5v7
					C19.6,40.1,19.4,40.3,19.1,40.3z M12.5,39.4h6.3v-6.3h-6.3C12.5,33.2,12.5,39.4,12.5,39.4z"/>
			</g>
			<g>
				<path class="st8" d="M35.9,32.7h7c0,0,0.1,0,0.1,0.1v7c0,0,0,0.1-0.1,0.1h-7c0,0-0.1,0-0.1-0.1L35.9,32.7
					C35.9,32.8,35.9,32.7,35.9,32.7z"/>
				<path class="st9" d="M42.9,40.3h-7c-0.3,0-0.5-0.2-0.5-0.5v-7c0-0.3,0.2-0.5,0.5-0.5h7c0.3,0,0.5,0.2,0.5,0.5v7
					C43.4,40.1,43.2,40.3,42.9,40.3z M36.3,39.4h6.3v-6.3h-6.3V39.4z"/>
			</g>
			<g>
				<path class="st8" d="M24,22h7c0,0,0.1,0,0.1,0.1v7c0,0,0,0.1-0.1,0.1h-7c0,0-0.1,0-0.1-0.1L24,22C24,22,24,22,24,22z"/>
				<path class="st9" d="M31,29.6h-7c-0.3,0-0.5-0.2-0.5-0.5v-7c0-0.3,0.2-0.5,0.5-0.5h7c0.3,0,0.5,0.2,0.5,0.5v7
					C31.5,29.3,31.3,29.6,31,29.6z M24.4,28.7h6.3v-6.3h-6.3V28.7z"/>
			</g>
			<g>
				<path class="st8" d="M12.1,22h7c0,0,0.1,0,0.1,0.1v7c0,0,0,0.1-0.1,0.1h-7c0,0-0.1,0-0.1-0.1L12.1,22C12,22,12.1,22,12.1,22z"/>
				<path class="st9" d="M19.1,29.6h-7c-0.3,0-0.5-0.2-0.5-0.5v-7c0-0.3,0.2-0.5,0.5-0.5h7c0.3,0,0.5,0.2,0.5,0.5v7
					C19.6,29.3,19.4,29.6,19.1,29.6z M12.5,28.7h6.3v-6.3h-6.3C12.5,22.4,12.5,28.7,12.5,28.7z"/>
			</g>
			<g>
				<path class="st8" d="M35.9,22h7c0,0,0.1,0,0.1,0.1v7c0,0,0,0.1-0.1,0.1h-7c0,0-0.1,0-0.1-0.1L35.9,22C35.9,22,35.9,22,35.9,22z"
					/>
				<path class="st9" d="M42.9,29.6h-7c-0.3,0-0.5-0.2-0.5-0.5v-7c0-0.3,0.2-0.5,0.5-0.5h7c0.3,0,0.5,0.2,0.5,0.5v7
					C43.4,29.3,43.2,29.6,42.9,29.6z M36.3,28.7h6.3v-6.3h-6.3V28.7z"/>
			</g>
		</g>
		<g>
			<path id="dour" d="M31.1,72.3h-9V61.1c0-0.2,0.2-0.4,0.4-0.4h8.1c0.2,0,0.4,0.2,0.4,0.4V72.3z"/>
			<path class="st7" d="M29.9,72.1h-6.6v-9.9c0-0.1,0-0.2,0.2-0.2h6.2c0.1,0,0.2,0,0.2,0.2L29.9,72.1L29.9,72.1z"/>
		</g>
	</g>
</g>
</svg>
