<?xml version="1.0" encoding="utf-8"?>
<!-- Generator: Adobe Illustrator 24.2.3, SVG Export Plug-In . SVG Version: 6.00 Build 0)  -->
<svg version="1.1" id="Layer_1" xmlns="http://www.w3.org/2000/svg" xmlns:xlink="http://www.w3.org/1999/xlink" x="0px" y="0px"
	 viewBox="0 0 110 160" style="enable-background:new 0 0 110 160;" xml:space="preserve">
<style type="text/css">
	.st0{display:none;opacity:0.63;}
	.st1{display:inline;}
	.st2{fill:#E0E0E2;}
	.st3{stroke:#EFF1F2;stroke-width:27;stroke-linejoin:round;stroke-miterlimit:10;}
	.st4{display:inline;fill:#029299;}
	.st5{fill:#3D9AE2;}
	.st6{fill:#EFF1F2;}
	.st7{fill:#029299;}
	.st8{fill:#0786AD;}
	.st9{fill:#00465B;}
</style>
<g id="Layer_1_1_" class="st0">
	<g class="st1">
		<g id="not-needed">
			<path class="st2" d="M-61.3-97.8h232.5v383H-61.3V-97.8z"/>
		</g>
		<path id="shade_out" class="st3" d="M171.2-104.6h-47.9l-136.6-0.1h-47.9c-3.8,0-6.8,3.1-6.8,6.8V68.3h0.4V292h245.3V86.8h0.4
			V-97.8C178.1-101.6,175-104.6,171.2-104.6z M48.2,278.3h-6.8v-54.7h6.8V278.3z M68.7,278.3h-6.8v-54.7h6.8V278.3z M164.4,278.3
			H82.3v-61.5c0-3.8-3.1-6.8-6.8-6.8h-41c-3.8,0-6.8,3.1-6.8,6.8v61.5h-82.1V-49.9h218.8L164.4,278.3L164.4,278.3z M164.4-63.6
			H-54.4V-91h218.8L164.4-63.6L164.4-63.6z"/>
	</g>
	<g class="st1">
		<g>
			<path class="st2" d="M-61.3-97.8h232.5v383H-61.3V-97.8z"/>
		</g>
		<path d="M171.2-104.6h-47.9l-136.6-0.1h-47.9c-3.8,0-6.8,3.1-6.8,6.8V68.3h0.4V292h245.3V86.8h0.4V-97.8
			C178.1-101.6,175-104.6,171.2-104.6z M164.4,278.3H82.3v-61.5c0-3.8-3.1-6.8-6.8-6.8h-41c-3.8,0-6.8,3.1-6.8,6.8v61.5h-82.1V-49.9
			h218.8L164.4,278.3L164.4,278.3z"/>
	</g>
	<path id="door" class="st4" d="M71.2,278.3H39c-0.3,0-0.5-0.2-0.5-0.5v-53.7c0-0.3,0.2-0.5,0.5-0.5h32.2c0.3,0,0.5,0.2,0.5,0.5
		v53.7C71.7,278.1,71.4,278.3,71.2,278.3z"/>
	<path id="roof" class="st4" d="M163.6-63.6H-53.6c-0.4,0-0.8-0.3-0.8-0.8v-25.8c0-0.4,0.3-0.8,0.8-0.8h217.3c0.4,0,0.8,0.3,0.8,0.8
		v25.9C164.4-63.9,164.1-63.6,163.6-63.6z"/>
	<g id="windows" class="st1">
		<path class="st5" d="M34.5,103.6h41v41h-41V103.6z"/>
		<path class="st5" d="M-33.9,103.6h41v41h-41V103.6z"/>
		<path class="st5" d="M102.9,103.6h41v41h-41V103.6z"/>
		<path class="st5" d="M34.5,42.1h41v41h-41V42.1z"/>
		<path class="st5" d="M-33.9,42.1h41v41h-41V42.1z"/>
		<path class="st5" d="M102.9,42.1h41v41h-41V42.1z"/>
		<path class="st5" d="M34.5-19.5h41v41h-41V-19.5z"/>
		<path class="st5" d="M-33.9-19.5h41v41h-41V-19.5z"/>
		<path class="st5" d="M102.9-19.5h41v41h-41V-19.5z"/>
	</g>
</g>
<g id="building">
	<g id="building_1_">
		<g>
			<g id="frame_1_">
				<path id="frame" d="M12.6,153.2c-2,0-3.6-1.6-3.6-3.6V10.4c0-2,1.6-3.6,3.6-3.6h84.8c2,0,3.6,1.6,3.6,3.6v139.1
					c0,2-1.6,3.6-3.6,3.6L12.6,153.2L12.6,153.2z"/>
				<path id="out-shade" class="st6" d="M97.5,8.6c1,0,1.8,0.8,1.8,1.8v139.1c0,1-0.8,1.8-1.8,1.8H12.6c-1,0-1.8-0.8-1.8-1.8V10.4
					c0-1,0.8-1.8,1.8-1.8H97.5 M97.5,5H12.6c-3,0-5.4,2.4-5.4,5.4v139.1c0,3,2.4,5.4,5.4,5.4h84.8c3,0,5.4-2.4,5.4-5.4V10.4
					C102.9,7.4,100.4,5,97.5,5L97.5,5z"/>
			</g>
			<path id="inner-wall" class="st6" d="M94,146.4H16c-0.2,0-0.4-0.1-0.4-0.4V33.5c0-0.2,0.1-0.4,0.4-0.4h78c0.2,0,0.4,0.1,0.4,0.4
				v112.5C94.4,146.2,94.3,146.4,94,146.4z"/>
			<path class="st7" d="M94,27.3H16c-0.2,0-0.4-0.1-0.4-0.4V14.7c0-0.2,0.1-0.4,0.4-0.4h78c0.2,0,0.4,0.1,0.4,0.4V27
				C94.4,27.2,94.3,27.3,94,27.3z"/>
		</g>
		<g id="windows_1_">
			<g>
				<path class="st8" d="M47.8,87.1h14.4c0.1,0,0.2,0.1,0.2,0.2v14.4c0,0.1-0.1,0.2-0.2,0.2H47.8c-0.1,0-0.2-0.1-0.2-0.2V87.3
					C47.7,87.2,47.7,87.1,47.8,87.1z"/>
				<path class="st9" d="M62.2,102.8H47.8c-0.6,0-1.1-0.5-1.1-1.1V87.3c0-0.6,0.5-1.1,1.1-1.1h14.4c0.6,0,1.1,0.5,1.1,1.1v14.4
					C63.3,102.3,62.8,102.8,62.2,102.8z M48.6,101h13V88h-13V101z"/>
			</g>
			<g>
				<path class="st8" d="M23.2,87.1h14.4c0.1,0,0.2,0.1,0.2,0.2v14.4c0,0.1-0.1,0.2-0.2,0.2H23.2c-0.1,0-0.2-0.1-0.2-0.2V87.3
					C23,87.2,23.1,87.1,23.2,87.1z"/>
				<path class="st9" d="M37.6,102.8H23.2c-0.6,0-1.1-0.5-1.1-1.1V87.3c0-0.6,0.5-1.1,1.1-1.1h14.4c0.6,0,1.1,0.5,1.1,1.1v14.4
					C38.7,102.3,38.2,102.8,37.6,102.8z M23.9,101h13V88h-13V101z"/>
			</g>
			<g>
				<path class="st8" d="M72.4,87.1h14.4c0.1,0,0.2,0.1,0.2,0.2v14.4c0,0.1-0.1,0.2-0.2,0.2H72.4c-0.1,0-0.2-0.1-0.2-0.2V87.3
					C72.3,87.2,72.3,87.1,72.4,87.1z"/>
				<path class="st9" d="M86.8,102.8H72.4c-0.6,0-1.1-0.5-1.1-1.1V87.3c0-0.6,0.5-1.1,1.1-1.1h14.4c0.6,0,1.1,0.5,1.1,1.1v14.4
					C87.9,102.3,87.5,102.8,86.8,102.8z M73.2,101h13V88h-13V101z"/>
			</g>
			<g>
				<path class="st8" d="M48.2,65h13.7c0.3,0,0.5,0.2,0.5,0.5v13.7c0,0.3-0.2,0.5-0.5,0.5H48.2c-0.3,0-0.5-0.2-0.5-0.5V65.5
					C47.7,65.3,47.9,65,48.2,65z"/>
				<path class="st9" d="M61.9,80.7H48.2c-0.8,0-1.4-0.6-1.4-1.4V65.5c0-0.8,0.6-1.4,1.4-1.4h13.7c0.8,0,1.4,0.6,1.4,1.4v13.7
					C63.3,80,62.7,80.7,61.9,80.7z M48.6,78.9h13v-13h-13V78.9z"/>
			</g>
			<g>
				<path class="st8" d="M23.2,65h14.4c0.1,0,0.2,0.1,0.2,0.2v14.4c0,0.1-0.1,0.2-0.2,0.2H23.2c-0.1,0-0.2-0.1-0.2-0.2V65.2
					C23,65.1,23.1,65,23.2,65z"/>
				<path class="st9" d="M37.6,80.7H23.2c-0.6,0-1.1-0.5-1.1-1.1V65.2c0-0.6,0.5-1.1,1.1-1.1h14.4c0.6,0,1.1,0.5,1.1,1.1v14.4
					C38.7,80.2,38.2,80.7,37.6,80.7z M23.9,78.9h13v-13h-13V78.9z"/>
			</g>
			<g>
				<path class="st8" d="M72.4,65h14.4c0.1,0,0.2,0.1,0.2,0.2v14.4c0,0.1-0.1,0.2-0.2,0.2H72.4c-0.1,0-0.2-0.1-0.2-0.2V65.2
					C72.3,65.1,72.3,65,72.4,65z"/>
				<path class="st9" d="M86.8,80.7H72.4c-0.6,0-1.1-0.5-1.1-1.1V65.2c0-0.6,0.5-1.1,1.1-1.1h14.4c0.6,0,1.1,0.5,1.1,1.1v14.4
					C87.9,80.2,87.5,80.7,86.8,80.7z M73.2,78.9h13v-13h-13V78.9z"/>
			</g>
			<g>
				<path class="st8" d="M47.8,42.8h14.4c0.1,0,0.2,0.1,0.2,0.2v14.4c0,0.1-0.1,0.2-0.2,0.2H47.8c-0.1,0-0.2-0.1-0.2-0.2V43
					C47.7,42.9,47.7,42.8,47.8,42.8z"/>
				<path class="st9" d="M62.2,58.5H47.8c-0.6,0-1.1-0.5-1.1-1.1V43c0-0.6,0.5-1.1,1.1-1.1h14.4c0.6,0,1.1,0.5,1.1,1.1v14.4
					C63.3,58,62.8,58.5,62.2,58.5z M48.6,56.7h13v-13h-13V56.7z"/>
			</g>
			<g>
				<path class="st8" d="M23.2,42.8h14.4c0.1,0,0.2,0.1,0.2,0.2v14.4c0,0.1-0.1,0.2-0.2,0.2H23.2c-0.1,0-0.2-0.1-0.2-0.2V43
					C23,42.9,23.1,42.8,23.2,42.8z"/>
				<path class="st9" d="M37.6,58.5H23.2c-0.6,0-1.1-0.5-1.1-1.1V43c0-0.6,0.5-1.1,1.1-1.1h14.4c0.6,0,1.1,0.5,1.1,1.1v14.4
					C38.7,58,38.2,58.5,37.6,58.5z M23.9,56.7h13v-13h-13V56.7z"/>
			</g>
			<g>
				<path class="st8" d="M72.4,42.8h14.4c0.1,0,0.2,0.1,0.2,0.2v14.4c0,0.1-0.1,0.2-0.2,0.2H72.4c-0.1,0-0.2-0.1-0.2-0.2V43
					C72.3,42.9,72.3,42.8,72.4,42.8z"/>
				<path class="st9" d="M86.8,58.5H72.4c-0.6,0-1.1-0.5-1.1-1.1V43c0-0.6,0.5-1.1,1.1-1.1h14.4c0.6,0,1.1,0.5,1.1,1.1v14.4
					C87.9,58,87.5,58.5,86.8,58.5z M73.2,56.7h13v-13h-13V56.7z"/>
			</g>
		</g>
		<g>
			<path id="dour" d="M62.4,146.8H43.8v-23.2c0-0.5,0.4-0.9,0.9-0.9h16.8c0.5,0,0.9,0.4,0.9,0.9V146.8z"/>
			<path class="st7" d="M59.9,146.4H46.3V126c0-0.2,0.1-0.4,0.4-0.4h12.9c0.2,0,0.4,0.1,0.4,0.4V146.4z"/>
		</g>
	</g>
</g>
</svg>
