<?xml version="1.0" encoding="utf-8"?>
<!-- Generator: Adobe Illustrator 24.2.3, SVG Export Plug-In . SVG Version: 6.00 Build 0)  -->
<svg version="1.1" id="Layer_1" xmlns="http://www.w3.org/2000/svg" xmlns:xlink="http://www.w3.org/1999/xlink" x="0px" y="0px"
	 viewBox="0 0 500 503" style="enable-background:new 0 0 500 503;" xml:space="preserve">
<style type="text/css">
	.st0{fill:#FFFFFF;}
	.st1{fill:#AA0000;}
</style>
<circle class="st0" cx="250" cy="251.5" r="247.5"/>
<g>
	<path class="st1" d="M56,233.7c1-7.2,1.8-14.4,3-21.6c3.6-22.1,11.2-42.8,22.3-62.2c7.6-13.3,23.3-17.6,36.7-10.7
		c12.7,6.6,18,22.3,11.3,35.8c-6.9,13.8-13.2,27.8-16,43c-7.3,39.5,0.3,75.9,23.7,108.6c17.8,24.9,41.5,41.9,70.6,51.3
		c21.4,6.9,43.5,8.8,65.7,4.4c54.6-10.8,91.6-42.8,108.9-95.6c13.7-41.7,6.7-81.6-17.3-119.1c-0.8,1.5-1.3,2.6-1.8,3.6
		c-3,6.5-5.7,13.2-9.1,19.5c-3.3,6.1-9.5,8.1-15.4,4.4c-4.5-2.8-8.7-6.6-11.8-10.8c-19.5-26.3-38.6-52.9-57.8-79.5
		c-1.7-2.3-3.2-4.9-4.2-7.5c-3.9-10.3,0.7-19,11.5-20.9c10.2-1.8,20.5-2.7,30.7-3.8c23.2-2.5,46.3-5,69.5-7.2
		c5.1-0.5,10.4-0.6,15.4,0.4c8.9,1.8,12.9,9.3,9.8,17.8c-3,8.1-6.6,16.1-10.2,23.9c-1.4,3-1.4,4.9,1,7.5
		c24.7,26.9,41.3,58.3,47.2,94.3c13,79.1-12.9,143.6-76.4,192.5c-25,19.3-53.8,30.8-85,35c-61.2,8.2-115.2-8.2-160.6-50.1
		C82.1,354,62.4,312.9,56.9,265c-0.3-2.6-0.6-5.2-0.9-7.8C56,249.4,56,241.5,56,233.7z"/>
</g>
</svg>
