<svg id="Layer_1" data-name="Layer 1" xmlns="http://www.w3.org/2000/svg" viewBox="0 0 1178.29 467.37"><defs><style>.cls-1,.cls-2{fill:#fff;}.cls-2{font-size:234px;font-family:TrebuchetMS-Bold, Trebuchet MS;font-weight:700;}</style></defs><path class="cls-1" d="M158.49,477c-37-62.76-73.75-123.74-109.06-185.54C32.18,261.24,17.86,229.36,10,195.17c-10.81-46.86.75-89.1,30.47-125.67C117.07-24.79,263-4.4,311.23,107.21c16.3,37.68,15.35,75.92-.3,114.21-16.44,40.25-40.47,76.08-63.1,112.77q-40.05,64.9-80.48,129.59C164.79,467.89,162,471.84,158.49,477ZM22.08,167.45c.1,78.23,64.51,142.52,142.74,142.48s142.32-64.67,142.06-143c-.25-77.6-64.67-142.11-142.12-142.3C87.12,24.43,22,89.63,22.08,167.45Z" transform="translate(-6 -9.61)"/><path class="cls-1" d="M284.31,159.27c-7,0-14,.28-21-.08-6.75-.35-6.37,3.91-6.4,8.44s-.14,8.73,6.51,8.38c7-.36,14.05-.08,21-.08.58,51.59-48.52,110.44-112.62,111.8,0-7-.27-14,.09-21,.32-6.24-3.11-7-8.09-7-4.74,0-8.62.22-8.3,6.69.34,7,.08,14,.08,21C91.11,285.52,43.43,224.87,44.76,175.7h25V159.16h-25C43.85,104.5,97.53,47.29,155.9,47.71V70.35h16.37V48C227.18,46,285.19,101.07,284.31,159.27ZM230.73,255c-.52-1.85-.82-3.33-1.33-4.73q-29.22-78.84-58.6-157.61c-1.11-3-4.31-5.15-6.54-7.7-2,2.39-4.77,4.46-5.88,7.21Q135.12,149.48,112.25,207c-6.37,15.91-12.7,31.84-19.62,49.18,7.58,0,13.69-.32,19.75.1,5.24.35,7.78-1.59,9.21-6.64a198.56,198.56,0,0,1,8.13-23.56c1-2.37,4.5-5.15,6.91-5.21,18.79-.43,37.59-.24,56.51-.24,2,5.31,4.14,10.1,5.7,15.06,7,22.33,6.93,22.35,30.11,20.1A9.82,9.82,0,0,0,230.73,255Z" transform="translate(-6 -9.61)"/><path class="cls-1" d="M186.77,203.07H138.08c8.27-23.77,16.38-47.06,25.29-72.64C171.55,155.82,179,179.09,186.77,203.07Z" transform="translate(-6 -9.61)"/><text class="cls-2" transform="translate(331.06 247.13)">nyplace</text></svg>