<?xml version="1.0" encoding="utf-8"?>
<!-- Generator: Adobe Illustrator 24.2.3, SVG Export Plug-In . SVG Version: 6.00 Build 0)  -->
<svg version="1.1" id="Layer_1" xmlns="http://www.w3.org/2000/svg" xmlns:xlink="http://www.w3.org/1999/xlink" x="0px" y="0px"
	 viewBox="0 0 90 90" style="enable-background:new 0 0 90 90;" xml:space="preserve">
<style type="text/css">
	.st0{fill:#243186;stroke:#EFF1F2;stroke-width:2;stroke-miterlimit:10;}
	.st1{fill:#FFFFFF;stroke:#EFF1F2;stroke-width:2;stroke-miterlimit:10;}
</style>
<g>
	<path class="st0" d="M45,3.5c-15.9,0-28.8,12.9-28.8,28.8c0,20,28.8,54.1,28.8,54.1s28.8-35.2,28.8-54.1C73.8,16.4,60.9,3.5,45,3.5
		z M53.7,40.8c-2.4,2.4-5.5,3.6-8.7,3.6c-3.1,0-6.3-1.2-8.7-3.6c-4.8-4.8-4.8-12.6,0-17.4c2.3-2.3,5.4-3.6,8.7-3.6s6.4,1.3,8.7,3.6
		C58.5,28.2,58.5,36,53.7,40.8z"/>
	<circle class="st1" cx="45" cy="31.8" r="13.3"/>
</g>
</svg>
