<?xml version="1.0" encoding="utf-8"?>
<!-- Generator: Adobe Illustrator 24.2.3, SVG Export Plug-In . SVG Version: 6.00 Build 0)  -->
<svg version="1.1" id="Capa_1" xmlns="http://www.w3.org/2000/svg" xmlns:xlink="http://www.w3.org/1999/xlink" x="0px" y="0px"
	 viewBox="0 0 512 512" style="enable-background:new 0 0 512 512;" xml:space="preserve">
<style type="text/css">
	.st0{fill:#FFFFFF;stroke:#EFF1F2;stroke-width:37;stroke-miterlimit:10;}
	.st1{fill:#FFFFFF;stroke:#353535;stroke-width:31;stroke-miterlimit:10;}
	.st2{fill:#54A0FC;stroke:#000000;stroke-width:5;stroke-miterlimit:10;}
	.st3{stroke:#000000;stroke-width:0.5;stroke-miterlimit:10;}
	.st4{stroke:#000000;stroke-width:5;stroke-miterlimit:10;}
</style>
<circle class="st0" cx="256" cy="256" r="231.6"/>
<g>
	<circle class="st1" cx="256" cy="256" r="211.6"/>
	<g>
		<rect x="118.8" y="281.6" class="st2" width="277.3" height="88.5"/>
		<path class="st3" d="M385.5,270.5h-23.5l49.7-116c2-4.6-0.2-10.1-4.9-12.1c-4.6-2-10.1,0.2-12.1,4.9l-52.8,123.3H170l-52.8-123.3
			c-2-4.6-7.4-6.8-12.1-4.9c-4.6,2-6.8,7.4-4.9,12.1l49.7,116h-23.4c-15.2,0-27.6,12.4-27.6,27.6v55.2c0,15.2,12.4,27.6,27.6,27.6
			h9.8v9.8c0,5.1,4.1,9.2,9.2,9.2c5.1,0,9.2-4.1,9.2-9.2v-9.8h202.5v9.8c0,5.1,4.1,9.2,9.2,9.2s9.2-4.1,9.2-9.2v-9.8h9.9
			c15.2,0,27.6-12.4,27.6-27.6v-55.2C413.1,283,400.7,270.5,385.5,270.5z M394.7,353.4c0,5.1-4.1,9.2-9.2,9.2h-259
			c-5.1,0-9.2-4.1-9.2-9.2v-55.2c0-5.1,4.1-9.2,9.2-9.2h259c5.1,0,9.2,4.1,9.2,9.2L394.7,353.4L394.7,353.4L394.7,353.4z"/>
		<path class="st4" d="M234.9,208.7c-3.9,3.9-3.9,10.2,0,14.1c3.9,3.9,10.2,3.9,14.1,0c1.1-1.1,3.5-2.9,7-2.9s5.9,1.8,7,2.9
			c3.9,3.9,10.2,3.9,14.1,0c3.9-3.9,3.9-10.2,0-14.1c-3.3-3.3-10.4-8.7-21.1-8.7C245.1,199.8,238.1,205.4,234.9,208.7z"/>
		<path class="st4" d="M164.2,138.1c24.5-24.5,57-38,91.8-38s67.2,13.5,91.8,38c3.9,3.9,10.2,3.9,14.1,0c3.9-3.9,3.9-10.2,0-14.1
			C333.6,95.7,296,80.1,256.1,80.1S178.5,95.6,150.3,124c-3.9,3.9-3.9,10.2,0,14.1C154.1,141.9,160.4,141.9,164.2,138.1z"/>
		<path class="st4" d="M333.6,166.4c3.9-3.9,3.9-10.2,0-14.1c-20.8-20.8-48.3-32.2-77.6-32.2s-56.9,11.5-77.6,32.2
			c-3.9,3.9-3.9,10.2,0,14.1c3.9,3.8,10.2,3.9,14.1,0c17-17,39.6-26.3,63.4-26.3s46.5,9.4,63.4,26.3
			C323.3,170.2,329.7,170.3,333.6,166.4z"/>
		<path class="st4" d="M305.4,194.5c3.9-3.9,3.9-10.2,0-14.1c-13.3-13.2-30.8-20.5-49.4-20.5s-36.2,7.3-49.4,20.5
			c-3.9,3.9-3.9,10.2,0,14.1c3.9,3.9,10.2,3.9,14.1,0c9.5-9.5,22-14.7,35.3-14.7c13.3,0,25.8,5.2,35.3,14.7
			C295.2,198.4,301.5,198.4,305.4,194.5z"/>
		<path class="st4" d="M275,299.6c-5.6,0-9.9,4.5-9.9,9.9v20c0,5.6,4.5,9.9,9.9,9.9c5.5,0,9.9-4.5,9.9-9.9v-20
			C284.9,304.1,280.5,299.6,275,299.6z"/>
		<path class="st4" d="M314.9,299.6c-5.6,0-9.9,4.5-9.9,9.9v20c0,5.6,4.5,9.9,9.9,9.9c5.5,0,9.9-4.5,9.9-9.9v-20
			C324.8,304.1,320.3,299.6,314.9,299.6z"/>
		<path class="st4" d="M354.8,299.6c-5.6,0-9.9,4.5-9.9,9.9v20c0,5.6,4.5,9.9,9.9,9.9c5.5,0,9.9-4.5,9.9-9.9v-20
			C364.7,304.1,360.3,299.6,354.8,299.6z"/>
	</g>
</g>
</svg>
