<svg id="Layer_1" xmlns="http://www.w3.org/2000/svg" viewBox="0 0 55 80"><style>.st0{display:none;opacity:.63}.st1{display:inline}.st2{fill:#e0e0e2}.st3{stroke:#eff1f2;stroke-width:27;stroke-linejoin:round;stroke-miterlimit:10}.st4{display:inline;fill:#029299}.st5{fill:#3d9ae2}.st6{fill:#eff1f2}.st7{fill:#029299}.st8{fill:#0786ad}.st9{fill:#00465b}</style><g id="Layer_1_1_" class="st0"><g class="st1"><path class="st2" d="M-88.8-137.8h232.5v383H-88.8v-383z" id="not-needed"/><path id="shade_out" class="st3" d="M143.7-144.6H95.8l-136.6-.1h-47.9c-3.8 0-6.8 3.1-6.8 6.8V28.3h.4V252h245.3V46.8h.4v-184.6c0-3.8-3.1-6.8-6.9-6.8zm-123 382.9h-6.8v-54.7h6.8v54.7zm20.5 0h-6.8v-54.7h6.8v54.7zm95.7 0H54.8v-61.5c0-3.8-3.1-6.8-6.8-6.8H7c-3.8 0-6.8 3.1-6.8 6.8v61.5h-82.1V-89.9h218.8v328.2zm0-341.9H-81.9V-131h218.8v27.4z"/></g><g class="st1"><path class="st2" d="M-88.8-137.8h232.5v383H-88.8v-383z"/><path d="M143.7-144.6H95.8l-136.6-.1h-47.9c-3.8 0-6.8 3.1-6.8 6.8V28.3h.4V252h245.3V46.8h.4v-184.6c0-3.8-3.1-6.8-6.9-6.8zm-6.8 382.9H54.8v-61.5c0-3.8-3.1-6.8-6.8-6.8H7c-3.8 0-6.8 3.1-6.8 6.8v61.5h-82.1V-89.9h218.8v328.2z"/></g><path id="door" class="st4" d="M43.7 238.3H11.5c-.3 0-.5-.2-.5-.5v-53.7c0-.3.2-.5.5-.5h32.2c.3 0 .5.2.5.5v53.7c0 .3-.3.5-.5.5z"/><path id="roof" class="st4" d="M136.1-103.6H-81.1c-.4 0-.8-.3-.8-.8v-25.8c0-.4.3-.8.8-.8h217.3c.4 0 .8.3.8.8v25.9c-.1.4-.4.7-.9.7z"/><g id="windows" class="st1"><path class="st5" d="M7 63.6h41v41H7v-41zM-61.4 63.6h41v41h-41v-41zM75.4 63.6h41v41h-41v-41zM7 2.1h41v41H7v-41zM-61.4 2.1h41v41h-41v-41zM75.4 2.1h41v41h-41v-41zM7-59.5h41v41H7v-41zM-61.4-59.5h41v41h-41v-41zM75.4-59.5h41v41h-41v-41z"/></g></g><g id="building"><g id="building_1_"><g id="frame_1_"><path id="frame" d="M7 75.4c-1 0-1.7-.8-1.7-1.7V6.3c0-1 .8-1.7 1.7-1.7h41c1 0 1.7.8 1.7 1.7v67.3c0 1-.8 1.7-1.7 1.7l-41 .1z"/><path id="out-shade" class="st6" d="M48.1 5.4c.5 0 .9.4.9.9v67.3c0 .5-.4.9-.9.9H7c-.5 0-.9-.4-.9-.9V6.3c0-.5.4-.9.9-.9h41.1m0-1.7H7c-1.5 0-2.6 1.2-2.6 2.6v67.3c0 1.5 1.2 2.6 2.6 2.6h41c1.5 0 2.6-1.2 2.6-2.6V6.3c.1-1.4-1.1-2.6-2.5-2.6z"/></g><path id="inner-wall" class="st6" d="M46.4 72.1H8.6c-.1 0-.2 0-.2-.2V17.5c0-.1 0-.2.2-.2h37.7c.1 0 .2 0 .2.2v54.4c.1.1 0 .2-.1.2z"/><path class="st7" d="M46.4 14.5H8.6c-.1 0-.2 0-.2-.2V8.4c0-.1 0-.2.2-.2h37.7c.1 0 .2 0 .2.2v5.9c.1.1 0 .2-.1.2z"/><g id="windows_1_"><path class="st8" d="M24 43.4h7s.1 0 .1.1v7s0 .1-.1.1h-7s-.1 0-.1-.1l.1-7.1c0 .1 0 0 0 0z"/><path class="st9" d="M31 51h-7c-.3 0-.5-.2-.5-.5v-7c0-.3.2-.5.5-.5h7c.3 0 .5.2.5.5v7c0 .3-.2.5-.5.5zm-6.6-.9h6.3v-6.3h-6.3v6.3z"/><path class="st8" d="M12.1 43.4h7s.1 0 .1.1v7s0 .1-.1.1h-7s-.1 0-.1-.1l.1-7.1c-.1.1 0 0 0 0z"/><path class="st9" d="M19.1 51h-7c-.3 0-.5-.2-.5-.5v-7c0-.3.2-.5.5-.5h7c.3 0 .5.2.5.5v7c0 .3-.2.5-.5.5zm-6.6-.9h6.3v-6.3h-6.3v6.3z"/><path class="st8" d="M35.9 43.4h7s.1 0 .1.1v7s0 .1-.1.1h-7s-.1 0-.1-.1l.1-7.1c0 .1 0 0 0 0z"/><path class="st9" d="M42.9 51h-7c-.3 0-.5-.2-.5-.5v-7c0-.3.2-.5.5-.5h7c.3 0 .5.2.5.5v7c0 .3-.2.5-.5.5zm-6.6-.9h6.3v-6.3h-6.3v6.3z"/><path class="st8" d="M24.2 32.7h6.6c.1 0 .2.1.2.2v6.6c0 .1-.1.2-.2.2h-6.6c-.1 0-.2-.1-.2-.2V33c0-.1.1-.3.2-.3z"/><path class="st9" d="M30.8 40.3h-6.6c-.4 0-.7-.3-.7-.7V33c0-.4.3-.7.7-.7h6.6c.4 0 .7.3.7.7v6.6c0 .4-.3.7-.7.7zm-6.4-.9h6.3v-6.3h-6.3v6.3z"/><path class="st8" d="M12.1 32.7h7s.1 0 .1.1v7s0 .1-.1.1h-7s-.1 0-.1-.1l.1-7.1c-.1.1 0 0 0 0z"/><path class="st9" d="M19.1 40.3h-7c-.3 0-.5-.2-.5-.5v-7c0-.3.2-.5.5-.5h7c.3 0 .5.2.5.5v7c0 .3-.2.5-.5.5zm-6.6-.9h6.3v-6.3h-6.3v6.3z"/><g><path class="st8" d="M35.9 32.7h7s.1 0 .1.1v7s0 .1-.1.1h-7s-.1 0-.1-.1l.1-7.1c0 .1 0 0 0 0z"/><path class="st9" d="M42.9 40.3h-7c-.3 0-.5-.2-.5-.5v-7c0-.3.2-.5.5-.5h7c.3 0 .5.2.5.5v7c0 .3-.2.5-.5.5zm-6.6-.9h6.3v-6.3h-6.3v6.3z"/></g><g><path class="st8" d="M24 22h7s.1 0 .1.1v7s0 .1-.1.1h-7s-.1 0-.1-.1L24 22z"/><path class="st9" d="M31 29.6h-7c-.3 0-.5-.2-.5-.5v-7c0-.3.2-.5.5-.5h7c.3 0 .5.2.5.5v7c0 .2-.2.5-.5.5zm-6.6-.9h6.3v-6.3h-6.3v6.3z"/></g><g><path class="st8" d="M12.1 22h7s.1 0 .1.1v7s0 .1-.1.1h-7s-.1 0-.1-.1l.1-7.1c-.1 0 0 0 0 0z"/><path class="st9" d="M19.1 29.6h-7c-.3 0-.5-.2-.5-.5v-7c0-.3.2-.5.5-.5h7c.3 0 .5.2.5.5v7c0 .2-.2.5-.5.5zm-6.6-.9h6.3v-6.3h-6.3v6.3z"/></g><g><path class="st8" d="M35.9 22h7s.1 0 .1.1v7s0 .1-.1.1h-7s-.1 0-.1-.1l.1-7.1z"/><path class="st9" d="M42.9 29.6h-7c-.3 0-.5-.2-.5-.5v-7c0-.3.2-.5.5-.5h7c.3 0 .5.2.5.5v7c0 .2-.2.5-.5.5zm-6.6-.9h6.3v-6.3h-6.3v6.3z"/></g></g><g><path id="dour" d="M31.1 72.3h-9V61.1c0-.2.2-.4.4-.4h8.1c.2 0 .4.2.4.4v11.2z"/><path class="st7" d="M29.9 72.1h-6.6v-9.9c0-.1 0-.2.2-.2h6.2c.1 0 .2 0 .2.2v9.9z"/></g></g></g></svg>