<svg id="Layer_1" xmlns="http://www.w3.org/2000/svg" viewBox="0 0 110 160"><style>.st0{display:none;opacity:.63}.st1{display:inline}.st2{fill:#e0e0e2}.st3{stroke:#eff1f2;stroke-width:27;stroke-linejoin:round;stroke-miterlimit:10}.st4{display:inline;fill:#029299}.st5{fill:#3d9ae2}.st6{fill:#eff1f2}.st7{fill:#029299}.st8{fill:#0786ad}.st9{fill:#00465b}</style><g id="Layer_1_1_" class="st0"><g class="st1"><path class="st2" d="M-61.3-97.8h232.5v383H-61.3v-383z" id="not-needed"/><path id="shade_out" class="st3" d="M171.2-104.6h-47.9l-136.6-.1h-47.9c-3.8 0-6.8 3.1-6.8 6.8V68.3h.4V292h245.3V86.8h.4V-97.8c0-3.8-3.1-6.8-6.9-6.8zm-123 382.9h-6.8v-54.7h6.8v54.7zm20.5 0h-6.8v-54.7h6.8v54.7zm95.7 0H82.3v-61.5c0-3.8-3.1-6.8-6.8-6.8h-41c-3.8 0-6.8 3.1-6.8 6.8v61.5h-82.1V-49.9h218.8v328.2zm0-341.9H-54.4V-91h218.8v27.4z"/></g><g class="st1"><path class="st2" d="M-61.3-97.8h232.5v383H-61.3v-383z"/><path d="M171.2-104.6h-47.9l-136.6-.1h-47.9c-3.8 0-6.8 3.1-6.8 6.8V68.3h.4V292h245.3V86.8h.4V-97.8c0-3.8-3.1-6.8-6.9-6.8zm-6.8 382.9H82.3v-61.5c0-3.8-3.1-6.8-6.8-6.8h-41c-3.8 0-6.8 3.1-6.8 6.8v61.5h-82.1V-49.9h218.8v328.2z"/></g><path id="door" class="st4" d="M71.2 278.3H39c-.3 0-.5-.2-.5-.5v-53.7c0-.3.2-.5.5-.5h32.2c.3 0 .5.2.5.5v53.7c0 .3-.3.5-.5.5z"/><path id="roof" class="st4" d="M163.6-63.6H-53.6c-.4 0-.8-.3-.8-.8v-25.8c0-.4.3-.8.8-.8h217.3c.4 0 .8.3.8.8v25.9c-.1.4-.4.7-.9.7z"/><g id="windows" class="st1"><path class="st5" d="M34.5 103.6h41v41h-41v-41zM-33.9 103.6h41v41h-41v-41zM102.9 103.6h41v41h-41v-41zM34.5 42.1h41v41h-41v-41zM-33.9 42.1h41v41h-41v-41zM102.9 42.1h41v41h-41v-41zM34.5-19.5h41v41h-41v-41zM-33.9-19.5h41v41h-41v-41zM102.9-19.5h41v41h-41v-41z"/></g></g><g id="building"><g id="building_1_"><g id="frame_1_"><path id="frame" d="M12.6 153.2c-2 0-3.6-1.6-3.6-3.6V10.4c0-2 1.6-3.6 3.6-3.6h84.8c2 0 3.6 1.6 3.6 3.6v139.1c0 2-1.6 3.6-3.6 3.6l-84.8.1z"/><path id="out-shade" class="st6" d="M97.5 8.6c1 0 1.8.8 1.8 1.8v139.1c0 1-.8 1.8-1.8 1.8H12.6c-1 0-1.8-.8-1.8-1.8V10.4c0-1 .8-1.8 1.8-1.8h84.9m0-3.6H12.6c-3 0-5.4 2.4-5.4 5.4v139.1c0 3 2.4 5.4 5.4 5.4h84.8c3 0 5.4-2.4 5.4-5.4V10.4c.1-3-2.4-5.4-5.3-5.4z"/></g><path id="inner-wall" class="st6" d="M94 146.4H16c-.2 0-.4-.1-.4-.4V33.5c0-.2.1-.4.4-.4h78c.2 0 .4.1.4.4V146c0 .2-.1.4-.4.4z"/><path class="st7" d="M94 27.3H16c-.2 0-.4-.1-.4-.4V14.7c0-.2.1-.4.4-.4h78c.2 0 .4.1.4.4V27c0 .2-.1.3-.4.3z"/><g id="windows_1_"><path class="st8" d="M47.8 87.1h14.4c.1 0 .2.1.2.2v14.4c0 .1-.1.2-.2.2H47.8c-.1 0-.2-.1-.2-.2V87.3c.1-.1.1-.2.2-.2z"/><path class="st9" d="M62.2 102.8H47.8c-.6 0-1.1-.5-1.1-1.1V87.3c0-.6.5-1.1 1.1-1.1h14.4c.6 0 1.1.5 1.1 1.1v14.4c0 .6-.5 1.1-1.1 1.1zM48.6 101h13V88h-13v13z"/><path class="st8" d="M23.2 87.1h14.4c.1 0 .2.1.2.2v14.4c0 .1-.1.2-.2.2H23.2c-.1 0-.2-.1-.2-.2V87.3c0-.1.1-.2.2-.2z"/><path class="st9" d="M37.6 102.8H23.2c-.6 0-1.1-.5-1.1-1.1V87.3c0-.6.5-1.1 1.1-1.1h14.4c.6 0 1.1.5 1.1 1.1v14.4c0 .6-.5 1.1-1.1 1.1zM23.9 101h13V88h-13v13z"/><path class="st8" d="M72.4 87.1h14.4c.1 0 .2.1.2.2v14.4c0 .1-.1.2-.2.2H72.4c-.1 0-.2-.1-.2-.2V87.3c.1-.1.1-.2.2-.2z"/><path class="st9" d="M86.8 102.8H72.4c-.6 0-1.1-.5-1.1-1.1V87.3c0-.6.5-1.1 1.1-1.1h14.4c.6 0 1.1.5 1.1 1.1v14.4c0 .6-.4 1.1-1.1 1.1zM73.2 101h13V88h-13v13z"/><path class="st8" d="M48.2 65h13.7c.3 0 .5.2.5.5v13.7c0 .3-.2.5-.5.5H48.2c-.3 0-.5-.2-.5-.5V65.5c0-.2.2-.5.5-.5z"/><path class="st9" d="M61.9 80.7H48.2c-.8 0-1.4-.6-1.4-1.4V65.5c0-.8.6-1.4 1.4-1.4h13.7c.8 0 1.4.6 1.4 1.4v13.7c0 .8-.6 1.5-1.4 1.5zm-13.3-1.8h13v-13h-13v13z"/><path class="st8" d="M23.2 65h14.4c.1 0 .2.1.2.2v14.4c0 .1-.1.2-.2.2H23.2c-.1 0-.2-.1-.2-.2V65.2c0-.1.1-.2.2-.2z"/><path class="st9" d="M37.6 80.7H23.2c-.6 0-1.1-.5-1.1-1.1V65.2c0-.6.5-1.1 1.1-1.1h14.4c.6 0 1.1.5 1.1 1.1v14.4c0 .6-.5 1.1-1.1 1.1zm-13.7-1.8h13v-13h-13v13z"/><g><path class="st8" d="M72.4 65h14.4c.1 0 .2.1.2.2v14.4c0 .1-.1.2-.2.2H72.4c-.1 0-.2-.1-.2-.2V65.2c.1-.1.1-.2.2-.2z"/><path class="st9" d="M86.8 80.7H72.4c-.6 0-1.1-.5-1.1-1.1V65.2c0-.6.5-1.1 1.1-1.1h14.4c.6 0 1.1.5 1.1 1.1v14.4c0 .6-.4 1.1-1.1 1.1zm-13.6-1.8h13v-13h-13v13z"/></g><g><path class="st8" d="M47.8 42.8h14.4c.1 0 .2.1.2.2v14.4c0 .1-.1.2-.2.2H47.8c-.1 0-.2-.1-.2-.2V43c.1-.1.1-.2.2-.2z"/><path class="st9" d="M62.2 58.5H47.8c-.6 0-1.1-.5-1.1-1.1V43c0-.6.5-1.1 1.1-1.1h14.4c.6 0 1.1.5 1.1 1.1v14.4c0 .6-.5 1.1-1.1 1.1zm-13.6-1.8h13v-13h-13v13z"/></g><g><path class="st8" d="M23.2 42.8h14.4c.1 0 .2.1.2.2v14.4c0 .1-.1.2-.2.2H23.2c-.1 0-.2-.1-.2-.2V43c0-.1.1-.2.2-.2z"/><path class="st9" d="M37.6 58.5H23.2c-.6 0-1.1-.5-1.1-1.1V43c0-.6.5-1.1 1.1-1.1h14.4c.6 0 1.1.5 1.1 1.1v14.4c0 .6-.5 1.1-1.1 1.1zm-13.7-1.8h13v-13h-13v13z"/></g><g><path class="st8" d="M72.4 42.8h14.4c.1 0 .2.1.2.2v14.4c0 .1-.1.2-.2.2H72.4c-.1 0-.2-.1-.2-.2V43c.1-.1.1-.2.2-.2z"/><path class="st9" d="M86.8 58.5H72.4c-.6 0-1.1-.5-1.1-1.1V43c0-.6.5-1.1 1.1-1.1h14.4c.6 0 1.1.5 1.1 1.1v14.4c0 .6-.4 1.1-1.1 1.1zm-13.6-1.8h13v-13h-13v13z"/></g></g><g><path id="dour" d="M62.4 146.8H43.8v-23.2c0-.5.4-.9.9-.9h16.8c.5 0 .9.4.9.9v23.2z"/><path class="st7" d="M59.9 146.4H46.3V126c0-.2.1-.4.4-.4h12.9c.2 0 .4.1.4.4v20.4z"/></g></g></g></svg>