<svg id="Layer_1" xmlns="http://www.w3.org/2000/svg" viewBox="0 0 512 512"><style>.st0{display:none;opacity:.63}.st1{display:inline}.st2{fill:#e0e0e2}.st3{stroke:#eff1f2;stroke-width:27;stroke-linejoin:round;stroke-miterlimit:10}.st4{display:inline;fill:#029299}.st5{fill:#3d9ae2}.st6{fill:#eff1f2}.st7{fill:#029299}.st8{fill:#0786ad}.st9{fill:#00465b}</style><g id="Layer_1_1_" class="st0"><g class="st1"><path class="st2" d="M139.7 78.2h232.5v383H139.7v-383z" id="not-needed"/><path id="shade_out" class="st3" d="M372.2 71.4h-47.9l-136.6-.1h-47.9c-3.8 0-6.8 3.1-6.8 6.8v166.2h.4V468h245.3V262.8h.4V78.2c0-3.8-3.1-6.8-6.9-6.8zm-123 382.9h-6.8v-54.7h6.8v54.7zm20.5 0h-6.8v-54.7h6.8v54.7zm95.7 0h-82.1v-61.5c0-3.8-3.1-6.8-6.8-6.8h-41c-3.8 0-6.8 3.1-6.8 6.8v61.5h-82.1V126.1h218.8v328.2zm0-341.9H146.6V85h218.8v27.4z"/></g><g class="st1"><path class="st2" d="M139.7 78.2h232.5v383H139.7v-383z"/><path d="M372.2 71.4h-47.9l-136.6-.1h-47.9c-3.8 0-6.8 3.1-6.8 6.8v166.2h.4V468h245.3V262.8h.4V78.2c0-3.8-3.1-6.8-6.9-6.8zm-6.8 382.9h-82.1v-61.5c0-3.8-3.1-6.8-6.8-6.8h-41c-3.8 0-6.8 3.1-6.8 6.8v61.5h-82.1V126.1h218.8v328.2z"/></g><path id="door" class="st4" d="M272.2 454.3H240c-.3 0-.5-.2-.5-.5v-53.7c0-.3.2-.5.5-.5h32.2c.3 0 .5.2.5.5v53.7c0 .3-.3.5-.5.5z"/><path id="roof" class="st4" d="M364.6 112.4H147.4c-.4 0-.8-.3-.8-.8V85.8c0-.4.3-.8.8-.8h217.3c.4 0 .8.3.8.8v25.9c-.1.4-.4.7-.9.7z"/><g id="windows" class="st1"><path class="st5" d="M235.5 279.6h41v41h-41v-41zM167.1 279.6h41v41h-41v-41zM303.9 279.6h41v41h-41v-41zM235.5 218.1h41v41h-41v-41zM167.1 218.1h41v41h-41v-41zM303.9 218.1h41v41h-41v-41zM235.5 156.5h41v41h-41v-41zM167.1 156.5h41v41h-41v-41zM303.9 156.5h41v41h-41v-41z"/></g></g><g id="building"><g id="building_1_"><g id="frame_1_"><path id="frame" d="M138.1 459.4c-5.5 0-10-4.5-10-10V62.6c0-5.5 4.5-10 10-10h235.7c5.5 0 10 4.5 10 10v386.7c0 5.5-4.5 10-10 10l-235.7.1z"/><path id="out-shade" class="st6" d="M373.9 57.6c2.8 0 5 2.2 5 5v386.7c0 2.8-2.2 5-5 5H138.2c-2.8 0-5-2.2-5-5V62.6c0-2.8 2.2-5 5-5h235.7m0-10H138.2c-8.3 0-15 6.7-15 15v386.7c0 8.3 6.7 15 15 15h235.7c8.3 0 15-6.7 15-15V62.6c0-8.2-6.8-15-15-15z"/></g><path id="inner-wall" class="st6" d="M364.4 440.7H147.6c-.6 0-1-.4-1-1V126.9c0-.6.4-1 1-1h216.8c.6 0 1 .4 1 1v312.8c0 .5-.4 1-1 1z"/><path class="st7" d="M364.4 109.7H147.6c-.6 0-1-.4-1-1v-34c0-.6.4-1 1-1h216.8c.6 0 1 .4 1 1v34c0 .6-.4 1-1 1z"/><g id="windows_1_"><path class="st8" d="M236 275.9h40c.3 0 .5.2.5.5v40c0 .3-.2.5-.5.5h-40c-.3 0-.5-.2-.5-.5v-40c0-.2.2-.5.5-.5z"/><path class="st9" d="M276 319.4h-40c-1.7 0-3-1.3-3-3v-40c0-1.6 1.4-3 3-3h40c1.7 0 3 1.3 3 3v40c0 1.7-1.3 3-3 3zm-38-5h36v-36h-36v36z"/><path class="st8" d="M167.6 275.9h40c.3 0 .5.2.5.5v40c0 .3-.2.5-.5.5h-40c-.3 0-.5-.2-.5-.5v-40c0-.2.2-.5.5-.5z"/><path class="st9" d="M207.6 319.4h-40c-1.7 0-3-1.3-3-3v-40c0-1.6 1.4-3 3-3h40c1.7 0 3 1.3 3 3v40c0 1.7-1.3 3-3 3zm-38-5h36v-36h-36v36z"/><path class="st8" d="M304.4 275.9h40c.3 0 .5.2.5.5v40c0 .3-.2.5-.5.5h-40c-.3 0-.5-.2-.5-.5v-40c0-.2.2-.5.5-.5z"/><path class="st9" d="M344.4 319.4h-40c-1.7 0-3-1.3-3-3v-40c0-1.6 1.4-3 3-3h40c1.7 0 3 1.3 3 3v40c0 1.7-1.3 3-3 3zm-38-5h36v-36h-36v36z"/><path class="st8" d="M236.9 214.4h38.2c.8 0 1.4.6 1.4 1.4V254c0 .8-.6 1.4-1.4 1.4h-38.2c-.8 0-1.4-.6-1.4-1.4v-38.2c0-.7.6-1.4 1.4-1.4z"/><path class="st9" d="M275.1 257.9h-38.2c-2.2 0-3.9-1.7-3.9-3.9v-38.2c0-2.1 1.8-3.9 3.9-3.9h38.2c2.2 0 3.9 1.7 3.9 3.9V254c0 2.2-1.7 3.9-3.9 3.9zm-37.1-5h36v-36h-36v36z"/><path class="st8" d="M167.6 214.4h40c.3 0 .5.2.5.5v40c0 .3-.2.5-.5.5h-40c-.3 0-.5-.2-.5-.5v-40c0-.2.2-.5.5-.5z"/><path class="st9" d="M207.6 257.9h-40c-1.7 0-3-1.3-3-3v-40c0-1.6 1.4-3 3-3h40c1.7 0 3 1.3 3 3v40c0 1.7-1.3 3-3 3zm-38-5h36v-36h-36v36z"/><g><path class="st8" d="M304.4 214.4h40c.3 0 .5.2.5.5v40c0 .3-.2.5-.5.5h-40c-.3 0-.5-.2-.5-.5v-40c0-.2.2-.5.5-.5z"/><path class="st9" d="M344.4 257.9h-40c-1.7 0-3-1.3-3-3v-40c0-1.6 1.4-3 3-3h40c1.7 0 3 1.3 3 3v40c0 1.7-1.3 3-3 3zm-38-5h36v-36h-36v36z"/></g><g><path class="st8" d="M236 152.8h40c.3 0 .5.2.5.5v40c0 .3-.2.5-.5.5h-40c-.3 0-.5-.2-.5-.5v-40c0-.2.2-.5.5-.5z"/><path class="st9" d="M276 196.3h-40c-1.7 0-3-1.3-3-3v-40c0-1.6 1.4-3 3-3h40c1.7 0 3 1.3 3 3v40c0 1.7-1.3 3-3 3zm-38-5h36v-36h-36v36z"/></g><g><path class="st8" d="M167.6 152.8h40c.3 0 .5.2.5.5v40c0 .3-.2.5-.5.5h-40c-.3 0-.5-.2-.5-.5v-40c0-.2.2-.5.5-.5z"/><path class="st9" d="M207.6 196.3h-40c-1.7 0-3-1.3-3-3v-40c0-1.6 1.4-3 3-3h40c1.7 0 3 1.3 3 3v40c0 1.7-1.3 3-3 3zm-38-5h36v-36h-36v36z"/></g><g><path class="st8" d="M304.4 152.8h40c.3 0 .5.2.5.5v40c0 .3-.2.5-.5.5h-40c-.3 0-.5-.2-.5-.5v-40c0-.2.2-.5.5-.5z"/><path class="st9" d="M344.4 196.3h-40c-1.7 0-3-1.3-3-3v-40c0-1.6 1.4-3 3-3h40c1.7 0 3 1.3 3 3v40c0 1.7-1.3 3-3 3zm-38-5h36v-36h-36v36z"/></g></g><g><path id="dour" d="M276.5 441.7h-51.8v-64.4c0-1.4 1.1-2.5 2.5-2.5H274c1.4 0 2.5 1.1 2.5 2.5v64.4z"/><path class="st7" d="M269.6 440.7h-37.9V384c0-.6.4-1 1-1h35.9c.6 0 1 .4 1 1v56.7z"/></g></g></g></svg>