<svg id="Layer_1" xmlns="http://www.w3.org/2000/svg" viewBox="0 0 90 90"><style>.st0,.st1{fill:#243186;stroke:#eff1f2;stroke-width:2;stroke-miterlimit:10}.st1{fill:#fff}</style><path class="st0" d="M45 3.5c-15.9 0-28.8 12.9-28.8 28.8 0 20 28.8 54.1 28.8 54.1s28.8-35.2 28.8-54.1C73.8 16.4 60.9 3.5 45 3.5zm8.7 37.3c-2.4 2.4-5.5 3.6-8.7 3.6-3.1 0-6.3-1.2-8.7-3.6-4.8-4.8-4.8-12.6 0-17.4 2.3-2.3 5.4-3.6 8.7-3.6s6.4 1.3 8.7 3.6c4.8 4.8 4.8 12.6 0 17.4z"/><circle class="st1" cx="45" cy="31.8" r="13.3"/></svg>