<svg id="Capa_1" xmlns="http://www.w3.org/2000/svg" viewBox="0 0 512 512"><style>.st0{stroke:#000;stroke-width:5;stroke-miterlimit:10}.st1{fill:#fff}</style><path class="st0" d="M16.9 308.6h470.2v131.7H16.9z"/><path class="st0" d="M464.8 285.3h-38L507 98.1c3.3-7.5-.3-16.3-7.9-19.5-7.5-3.3-16.3.3-19.5 7.9l-85.2 198.8H117.3L32.1 86.5c-3.3-7.5-11.9-11-19.5-7.9-7.5 3.3-11 11.9-7.9 19.5l80.1 187.1H47.2c-24.5 0-44.5 19.9-44.5 44.5v89.1c0 24.5 19.9 44.5 44.5 44.5H63v15.9c0 8.3 6.6 14.8 14.8 14.8 8.3 0 14.8-6.6 14.8-14.8v-15.9h326.7v15.9c0 8.3 6.6 14.8 14.8 14.8 8.1 0 14.8-6.6 14.8-14.8v-15.9h16c24.5 0 44.5-19.9 44.5-44.5v-89.1c.1-24.3-20-44.4-44.6-44.4zm15 133.7c0 8.3-6.6 14.8-14.8 14.8H47.2c-8.3 0-14.8-6.6-14.8-14.8v-89.1c0-8.3 6.6-14.8 14.8-14.8h417.7c8.3 0 14.8 6.6 14.8 14.8V419h.1z"/><path class="st0" d="M224.5 209.3c-5.8 5.8-5.8 15.2 0 21s15.2 5.8 21 0c1.6-1.6 5.2-4.3 10.4-4.3s8.8 2.7 10.4 4.3c5.8 5.8 15.2 5.8 21 0 5.8-5.8 5.8-15.2 0-21-4.9-4.9-15.5-13-31.5-13-16.1-.1-26.4 8.2-31.3 13zM119.4 104.4c36.5-36.5 84.9-56.6 136.6-56.6s99.9 20.1 136.6 56.6c5.8 5.8 15.2 5.8 21 0 5.8-5.8 5.8-15.2 0-21-42-42-98-65.4-157.4-65.4S140.7 41.2 98.7 83.4c-5.8 5.8-5.8 15.2 0 21 5.7 5.7 15 5.7 20.7 0z"/><path class="st0" d="M371.5 146.4c5.8-5.8 5.8-15.2 0-21-30.9-30.9-71.8-47.9-115.5-47.9s-84.6 17.1-115.5 47.9c-5.8 5.8-5.8 15.2 0 21 5.8 5.7 15.2 5.8 21 0 25.2-25.2 58.9-39.2 94.4-39.2s69.2 14 94.4 39.2c5.9 5.7 15.4 5.9 21.2 0z"/><path class="st0" d="M329.5 188.3c5.8-5.8 5.8-15.2 0-21-19.8-19.7-45.8-30.5-73.5-30.5s-53.8 10.8-73.5 30.5c-5.8 5.8-5.8 15.2 0 21 5.8 5.8 15.2 5.8 21 0 14.1-14.1 32.7-21.8 52.5-21.8s38.4 7.7 52.5 21.8c5.8 5.9 15.2 5.9 21 0z"/><path class="st1" d="M315.4 344.7c-8.3 0-14.8 6.6-14.8 14.8v29.7c0 8.3 6.6 14.8 14.8 14.8 8.1 0 14.8-6.6 14.8-14.8v-29.7c0-8.2-6.5-14.8-14.8-14.8zM374.8 344.7c-8.3 0-14.8 6.6-14.8 14.8v29.7c0 8.3 6.6 14.8 14.8 14.8 8.1 0 14.8-6.6 14.8-14.8v-29.7c0-8.2-6.7-14.8-14.8-14.8zM434.2 344.7c-8.3 0-14.8 6.6-14.8 14.8v29.7c0 8.3 6.6 14.8 14.8 14.8 8.1 0 14.8-6.6 14.8-14.8v-29.7c0-8.2-6.7-14.8-14.8-14.8z"/></svg>