<svg xmlns="http://www.w3.org/2000/svg" viewBox="0 0 620.3 620.3"><circle cx="309" cy="196" r="152" fill="#fff"/><path d="M363.4 236.6l-13.5 13.2c-9.8-11.2-24-18.5-40-19.3-16.8-.8-32.3 5.9-43.2 17.1l-13.2-13.4c14.6-14.8 35-23.6 57.4-22.5 20.8 1.1 39.4 10.5 52.5 24.9zm-137.2-30l14.8 15.1c18-18.1 43.2-28.9 70.6-27.6 25.6 1.2 48.3 12.6 64.5 30.2l15-14.8c-19.7-21.2-47.4-35-78.5-36.5-33.6-1.7-64.4 11.5-86.4 33.6zm82.2 37.9c-14.3 0-25.9 11.6-25.9 25.8 0 14.3 11.6 25.9 25.9 25.9 14.3 0 25.8-11.6 25.8-25.9 0-14.2-11.5-25.8-25.8-25.8zm-108.9-65l15.7 16c25.1-24.9 60-39.8 98.1-38 35.2 1.7 66.5 17.2 89 41l16-15.7c-26.3-27.7-62.8-45.8-103.9-47.7-44.6-2.1-85.5 15.2-114.9 44.4zm306 15.9c0 107.9-195.4 424.9-195.4 424.9s-195.4-317-195.4-424.9C114.7 87.5 202.2 0 310.1 0s195.4 87.5 195.4 195.4zm-44.2 0c0-83.4-67.9-151.2-151.2-151.2-83.4 0-151.2 67.8-151.2 151.2 0 83.3 67.8 151.2 151.2 151.2 83.4 0 151.2-67.9 151.2-151.2zM317.1 97.2c-54.8-2.6-105.2 18.6-141.4 54.4l15.3 15.6c32-31.7 76.6-50.4 125-48.1 44.6 2 84.3 21.6 112.9 51.7l15.6-15.4c-32.3-33.8-77.1-55.8-127.4-58.2z" fill="#006660"/></svg>