<svg id="Layer_1" data-name="Layer 1" xmlns="http://www.w3.org/2000/svg" viewBox="0 0 1178.29 467.37"><defs><style>.cls-1{fill:#fff}</style></defs><path class="cls-1" d="M158.49 477c-37-62.76-73.75-123.74-109.06-185.54-17.25-30.22-31.57-62.1-39.43-96.29-10.81-46.86.75-89.1 30.47-125.67C117.07-24.79 263-4.4 311.23 107.21c16.3 37.68 15.35 75.92-.3 114.21-16.44 40.25-40.47 76.08-63.1 112.77q-40.05 64.9-80.48 129.59c-2.56 4.11-5.35 8.06-8.86 13.22zM22.08 167.45c.1 78.23 64.51 142.52 142.74 142.48s142.32-64.67 142.06-143c-.25-77.6-64.67-142.11-142.12-142.3-77.64-.2-142.76 65-142.68 142.82z" transform="translate(-6 -9.61)"/><path class="cls-1" d="M284.31 159.27c-7 0-14 .28-21-.08-6.75-.35-6.37 3.91-6.4 8.44s-.14 8.73 6.51 8.38c7-.36 14.05-.08 21-.08.58 51.59-48.52 110.44-112.62 111.8 0-7-.27-14 .09-21 .32-6.24-3.11-7-8.09-7-4.74 0-8.62.22-8.3 6.69.34 7 .08 14 .08 21-64.47-1.9-112.15-62.55-110.82-111.72h25v-16.54h-25C43.85 104.5 97.53 47.29 155.9 47.71v22.64h16.37V48c54.91-2 112.92 53.07 112.04 111.27zM230.73 255c-.52-1.85-.82-3.33-1.33-4.73q-29.22-78.84-58.6-157.61c-1.11-3-4.31-5.15-6.54-7.7-2 2.39-4.77 4.46-5.88 7.21Q135.12 149.48 112.25 207c-6.37 15.91-12.7 31.84-19.62 49.18 7.58 0 13.69-.32 19.75.1 5.24.35 7.78-1.59 9.21-6.64a198.56 198.56 0 018.13-23.56c1-2.37 4.5-5.15 6.91-5.21 18.79-.43 37.59-.24 56.51-.24 2 5.31 4.14 10.1 5.7 15.06 7 22.33 6.93 22.35 30.11 20.1a9.82 9.82 0 001.78-.79z" transform="translate(-6 -9.61)"/><path class="cls-1" d="M186.77 203.07h-48.69c8.27-23.77 16.38-47.06 25.29-72.64 8.18 25.39 15.63 48.66 23.4 72.64z" transform="translate(-6 -9.61)"/><text transform="translate(331.06 247.13)" font-size="234" font-family="TrebuchetMS-Bold,Trebuchet MS" font-weight="700" fill="#fff">nyplace</text></svg>