<svg version="1.1" id="Capa_1" xmlns="http://www.w3.org/2000/svg" x="0" y="0" viewBox="0 0 512 512" xml:space="preserve"><style>.st4{stroke:#000;stroke-width:5;stroke-miterlimit:10}</style><circle cx="256" cy="256" r="231.6" fill="#fff" stroke="#eff1f2" stroke-width="37" stroke-miterlimit="10"/><circle cx="256" cy="256" r="211.6" fill="#fff" stroke="#353535" stroke-width="31" stroke-miterlimit="10"/><path fill="#54a0fc" stroke="#000" stroke-width="5" stroke-miterlimit="10" d="M118.8 281.6h277.3v88.5H118.8z"/><path d="M385.5 270.5H362l49.7-116c2-4.6-.2-10.1-4.9-12.1-4.6-2-10.1.2-12.1 4.9l-52.8 123.3H170l-52.8-123.3c-2-4.6-7.4-6.8-12.1-4.9-4.6 2-6.8 7.4-4.9 12.1l49.7 116h-23.4c-15.2 0-27.6 12.4-27.6 27.6v55.2c0 15.2 12.4 27.6 27.6 27.6h9.8v9.8c0 5.1 4.1 9.2 9.2 9.2s9.2-4.1 9.2-9.2v-9.8h202.5v9.8c0 5.1 4.1 9.2 9.2 9.2s9.2-4.1 9.2-9.2v-9.8h9.9c15.2 0 27.6-12.4 27.6-27.6v-55.2c0-15.1-12.4-27.6-27.6-27.6zm9.2 82.9c0 5.1-4.1 9.2-9.2 9.2h-259c-5.1 0-9.2-4.1-9.2-9.2v-55.2c0-5.1 4.1-9.2 9.2-9.2h259c5.1 0 9.2 4.1 9.2 9.2v55.2h0z" stroke="#000" stroke-width=".5" stroke-miterlimit="10"/><path class="st4" d="M234.9 208.7c-3.9 3.9-3.9 10.2 0 14.1 3.9 3.9 10.2 3.9 14.1 0 1.1-1.1 3.5-2.9 7-2.9s5.9 1.8 7 2.9c3.9 3.9 10.2 3.9 14.1 0 3.9-3.9 3.9-10.2 0-14.1-3.3-3.3-10.4-8.7-21.1-8.7-10.9-.2-17.9 5.4-21.1 8.7zm-70.7-70.6c24.5-24.5 57-38 91.8-38s67.2 13.5 91.8 38c3.9 3.9 10.2 3.9 14.1 0 3.9-3.9 3.9-10.2 0-14.1-28.3-28.3-65.9-43.9-105.8-43.9S178.5 95.6 150.3 124c-3.9 3.9-3.9 10.2 0 14.1 3.8 3.8 10.1 3.8 13.9 0z"/><path class="st4" d="M333.6 166.4c3.9-3.9 3.9-10.2 0-14.1-20.8-20.8-48.3-32.2-77.6-32.2s-56.9 11.5-77.6 32.2c-3.9 3.9-3.9 10.2 0 14.1 3.9 3.8 10.2 3.9 14.1 0 17-17 39.6-26.3 63.4-26.3s46.5 9.4 63.4 26.3c4 3.8 10.4 3.9 14.3 0z"/><path class="st4" d="M305.4 194.5c3.9-3.9 3.9-10.2 0-14.1-13.3-13.2-30.8-20.5-49.4-20.5s-36.2 7.3-49.4 20.5c-3.9 3.9-3.9 10.2 0 14.1 3.9 3.9 10.2 3.9 14.1 0 9.5-9.5 22-14.7 35.3-14.7 13.3 0 25.8 5.2 35.3 14.7 3.9 3.9 10.2 3.9 14.1 0zM275 299.6c-5.6 0-9.9 4.5-9.9 9.9v20c0 5.6 4.5 9.9 9.9 9.9 5.5 0 9.9-4.5 9.9-9.9v-20c0-5.4-4.4-9.9-9.9-9.9zm39.9 0c-5.6 0-9.9 4.5-9.9 9.9v20c0 5.6 4.5 9.9 9.9 9.9 5.5 0 9.9-4.5 9.9-9.9v-20c0-5.4-4.5-9.9-9.9-9.9zm39.9 0c-5.6 0-9.9 4.5-9.9 9.9v20c0 5.6 4.5 9.9 9.9 9.9 5.5 0 9.9-4.5 9.9-9.9v-20c0-5.4-4.4-9.9-9.9-9.9z"/></svg>