<?xml version="1.0" encoding="utf-8"?>
<!-- Generator: Adobe Illustrator 24.2.0, SVG Export Plug-In . SVG Version: 6.00 Build 0)  -->
<svg version="1.1" id="Layer_1" xmlns="http://www.w3.org/2000/svg" xmlns:xlink="http://www.w3.org/1999/xlink" x="0px" y="0px"
	 viewBox="0 0 512 512" style="enable-background:new 0 0 512 512;" xml:space="preserve">
<style type="text/css">
	.st0{fill:#E0E0E2;}
	.st1{fill:#ACABB1;}
	.st2{fill:#029299;}
	.st3{fill:#3D9AE2;}
</style>
<g>
	<g>
		<path class="st0" d="M139.7,78.2h232.5v383H139.7V78.2z"/>
		<path class="st1" d="M194.5,50.8h123.1v27.4H194.5V50.8z"/>
		<path class="st2" d="M139.7,78.2h232.5v41H139.7V78.2z"/>
		<g>
			<path class="st3" d="M235.5,392.8h41v68.4h-41V392.8z"/>
			<path class="st3" d="M235.5,324.4h41v41h-41V324.4z"/>
			<path class="st3" d="M167.1,324.4h41v41h-41V324.4z"/>
			<path class="st3" d="M303.9,324.4h41v41h-41V324.4z"/>
			<path class="st3" d="M167.1,392.8h41v41h-41V392.8z"/>
			<path class="st3" d="M303.9,392.8h41v41h-41V392.8z"/>
			<path class="st3" d="M235.5,262.8h41v41h-41V262.8z"/>
			<path class="st3" d="M167.1,262.8h41v41h-41V262.8z"/>
			<path class="st3" d="M303.9,262.8h41v41h-41V262.8z"/>
			<path class="st3" d="M235.5,201.3h41v41h-41V201.3z"/>
			<path class="st3" d="M167.1,201.3h41v41h-41V201.3z"/>
			<path class="st3" d="M303.9,201.3h41v41h-41V201.3z"/>
			<path class="st3" d="M235.5,139.7h41v41h-41V139.7z"/>
			<path class="st3" d="M167.1,139.7h41v41h-41V139.7z"/>
			<path class="st3" d="M303.9,139.7h41v41h-41V139.7z"/>
		</g>
	</g>
	<path d="M372.3,71.4h-47.9V50.8c0-3.8-3.1-6.8-6.8-6.8H194.5c-3.8,0-6.8,3.1-6.8,6.8v20.5h-47.9c-3.8,0-6.8,3.1-6.8,6.8v166.2h0.4
		V468h245.3V262.8h0.4V78.2C379.1,74.4,376,71.4,372.3,71.4z M201.3,57.7h109.4v13.7H201.3V57.7z M249.2,454.3h-6.8v-54.7h6.8V454.3
		z M269.7,454.3h-6.8v-54.7h6.8V454.3z M365.4,454.3h-82.1v-61.5c0-3.8-3.1-6.8-6.8-6.8h-41c-3.8,0-6.8,3.1-6.8,6.8v61.5h-82.1
		V126.1h218.8V454.3z M365.4,112.4H146.6V85h218.8V112.4z"/>
</g>
</svg>
