<?xml version="1.0" encoding="utf-8"?>
<!-- Generator: Adobe Illustrator 24.2.3, SVG Export Plug-In . SVG Version: 6.00 Build 0)  -->
<svg version="1.1" id="Layer_1" xmlns="http://www.w3.org/2000/svg" xmlns:xlink="http://www.w3.org/1999/xlink" x="0px" y="0px"
	 viewBox="0 0 512 512" style="enable-background:new 0 0 512 512;" xml:space="preserve">
<style type="text/css">
	.st0{display:none;opacity:0.63;}
	.st1{display:inline;}
	.st2{fill:#E0E0E2;}
	.st3{stroke:#EFF1F2;stroke-width:27;stroke-linejoin:round;stroke-miterlimit:10;}
	.st4{display:inline;fill:#029299;}
	.st5{fill:#3D9AE2;}
	.st6{fill:#EFF1F2;}
	.st7{fill:#029299;}
	.st8{fill:#0786AD;}
	.st9{fill:#00465B;}
</style>
<g id="Layer_1_1_" class="st0">
	<g class="st1">
		<g id="not-needed">
			<path class="st2" d="M139.7,78.2h232.5v383H139.7V78.2z"/>
		</g>
		<path id="shade_out" class="st3" d="M372.2,71.4h-47.9l-136.6-0.1h-47.9c-3.8,0-6.8,3.1-6.8,6.8v166.2h0.4V468h245.3V262.8h0.4
			V78.2C379.1,74.4,376,71.4,372.2,71.4z M249.2,454.3h-6.8v-54.7h6.8V454.3z M269.7,454.3h-6.8v-54.7h6.8V454.3z M365.4,454.3
			h-82.1v-61.5c0-3.8-3.1-6.8-6.8-6.8h-41c-3.8,0-6.8,3.1-6.8,6.8v61.5h-82.1V126.1h218.8L365.4,454.3L365.4,454.3z M365.4,112.4
			H146.6V85h218.8L365.4,112.4L365.4,112.4z"/>
	</g>
	<g class="st1">
		<g>
			<path class="st2" d="M139.7,78.2h232.5v383H139.7V78.2z"/>
		</g>
		<path d="M372.2,71.4h-47.9l-136.6-0.1h-47.9c-3.8,0-6.8,3.1-6.8,6.8v166.2h0.4V468h245.3V262.8h0.4V78.2
			C379.1,74.4,376,71.4,372.2,71.4z M365.4,454.3h-82.1v-61.5c0-3.8-3.1-6.8-6.8-6.8h-41c-3.8,0-6.8,3.1-6.8,6.8v61.5h-82.1V126.1
			h218.8L365.4,454.3L365.4,454.3z"/>
	</g>
	<path id="door" class="st4" d="M272.2,454.3H240c-0.3,0-0.5-0.2-0.5-0.5v-53.7c0-0.3,0.2-0.5,0.5-0.5h32.2c0.3,0,0.5,0.2,0.5,0.5
		v53.7C272.7,454.1,272.4,454.3,272.2,454.3z"/>
	<path id="roof" class="st4" d="M364.6,112.4H147.4c-0.4,0-0.8-0.3-0.8-0.8V85.8c0-0.4,0.3-0.8,0.8-0.8h217.3c0.4,0,0.8,0.3,0.8,0.8
		v25.9C365.4,112.1,365.1,112.4,364.6,112.4z"/>
	<g id="windows" class="st1">
		<path class="st5" d="M235.5,279.6h41v41h-41V279.6z"/>
		<path class="st5" d="M167.1,279.6h41v41h-41V279.6z"/>
		<path class="st5" d="M303.9,279.6h41v41h-41V279.6z"/>
		<path class="st5" d="M235.5,218.1h41v41h-41V218.1z"/>
		<path class="st5" d="M167.1,218.1h41v41h-41V218.1z"/>
		<path class="st5" d="M303.9,218.1h41v41h-41V218.1z"/>
		<path class="st5" d="M235.5,156.5h41v41h-41V156.5z"/>
		<path class="st5" d="M167.1,156.5h41v41h-41V156.5z"/>
		<path class="st5" d="M303.9,156.5h41v41h-41V156.5z"/>
	</g>
</g>
<g id="building">
	<g id="building_1_">
		<g>
			<g id="frame_1_">
				<path id="frame" d="M138.1,459.4c-5.5,0-10-4.5-10-10V62.6c0-5.5,4.5-10,10-10h235.7c5.5,0,10,4.5,10,10v386.7
					c0,5.5-4.5,10-10,10L138.1,459.4L138.1,459.4z"/>
				<path id="out-shade" class="st6" d="M373.9,57.6c2.8,0,5,2.2,5,5v386.7c0,2.8-2.2,5-5,5H138.2c-2.8,0-5-2.2-5-5V62.6
					c0-2.8,2.2-5,5-5H373.9 M373.9,47.6H138.2c-8.3,0-15,6.7-15,15v386.7c0,8.3,6.7,15,15,15h235.7c8.3,0,15-6.7,15-15V62.6
					C388.9,54.4,382.1,47.6,373.9,47.6L373.9,47.6z"/>
			</g>
			<path id="inner-wall" class="st6" d="M364.4,440.7H147.6c-0.6,0-1-0.4-1-1V126.9c0-0.6,0.4-1,1-1h216.8c0.6,0,1,0.4,1,1v312.8
				C365.4,440.2,365,440.7,364.4,440.7z"/>
			<path class="st7" d="M364.4,109.7H147.6c-0.6,0-1-0.4-1-1v-34c0-0.6,0.4-1,1-1h216.8c0.6,0,1,0.4,1,1v34
				C365.4,109.3,365,109.7,364.4,109.7z"/>
		</g>
		<g id="windows_1_">
			<g>
				<path class="st8" d="M236,275.9h40c0.3,0,0.5,0.2,0.5,0.5v40c0,0.3-0.2,0.5-0.5,0.5h-40c-0.3,0-0.5-0.2-0.5-0.5v-40
					C235.5,276.2,235.7,275.9,236,275.9z"/>
				<path class="st9" d="M276,319.4h-40c-1.7,0-3-1.3-3-3v-40c0-1.6,1.4-3,3-3h40c1.7,0,3,1.3,3,3v40
					C279,318.1,277.7,319.4,276,319.4z M238,314.4h36v-36h-36V314.4z"/>
			</g>
			<g>
				<path class="st8" d="M167.6,275.9h40c0.3,0,0.5,0.2,0.5,0.5v40c0,0.3-0.2,0.5-0.5,0.5h-40c-0.3,0-0.5-0.2-0.5-0.5v-40
					C167.1,276.2,167.3,275.9,167.6,275.9z"/>
				<path class="st9" d="M207.6,319.4h-40c-1.7,0-3-1.3-3-3v-40c0-1.6,1.4-3,3-3h40c1.7,0,3,1.3,3,3v40
					C210.6,318.1,209.3,319.4,207.6,319.4z M169.6,314.4h36v-36h-36V314.4z"/>
			</g>
			<g>
				<path class="st8" d="M304.4,275.9h40c0.3,0,0.5,0.2,0.5,0.5v40c0,0.3-0.2,0.5-0.5,0.5h-40c-0.3,0-0.5-0.2-0.5-0.5v-40
					C303.9,276.2,304.1,275.9,304.4,275.9z"/>
				<path class="st9" d="M344.4,319.4h-40c-1.7,0-3-1.3-3-3v-40c0-1.6,1.4-3,3-3h40c1.7,0,3,1.3,3,3v40
					C347.4,318.1,346.1,319.4,344.4,319.4z M306.4,314.4h36v-36h-36V314.4z"/>
			</g>
			<g>
				<path class="st8" d="M236.9,214.4h38.2c0.8,0,1.4,0.6,1.4,1.4V254c0,0.8-0.6,1.4-1.4,1.4h-38.2c-0.8,0-1.4-0.6-1.4-1.4v-38.2
					C235.5,215.1,236.1,214.4,236.9,214.4z"/>
				<path class="st9" d="M275.1,257.9h-38.2c-2.2,0-3.9-1.7-3.9-3.9v-38.2c0-2.1,1.8-3.9,3.9-3.9h38.2c2.2,0,3.9,1.7,3.9,3.9V254
					C279,256.2,277.3,257.9,275.1,257.9z M238,252.9h36v-36h-36V252.9z"/>
			</g>
			<g>
				<path class="st8" d="M167.6,214.4h40c0.3,0,0.5,0.2,0.5,0.5v40c0,0.3-0.2,0.5-0.5,0.5h-40c-0.3,0-0.5-0.2-0.5-0.5v-40
					C167.1,214.7,167.3,214.4,167.6,214.4z"/>
				<path class="st9" d="M207.6,257.9h-40c-1.7,0-3-1.3-3-3v-40c0-1.6,1.4-3,3-3h40c1.7,0,3,1.3,3,3v40
					C210.6,256.6,209.3,257.9,207.6,257.9z M169.6,252.9h36v-36h-36V252.9z"/>
			</g>
			<g>
				<path class="st8" d="M304.4,214.4h40c0.3,0,0.5,0.2,0.5,0.5v40c0,0.3-0.2,0.5-0.5,0.5h-40c-0.3,0-0.5-0.2-0.5-0.5v-40
					C303.9,214.7,304.1,214.4,304.4,214.4z"/>
				<path class="st9" d="M344.4,257.9h-40c-1.7,0-3-1.3-3-3v-40c0-1.6,1.4-3,3-3h40c1.7,0,3,1.3,3,3v40
					C347.4,256.6,346.1,257.9,344.4,257.9z M306.4,252.9h36v-36h-36V252.9z"/>
			</g>
			<g>
				<path class="st8" d="M236,152.8h40c0.3,0,0.5,0.2,0.5,0.5v40c0,0.3-0.2,0.5-0.5,0.5h-40c-0.3,0-0.5-0.2-0.5-0.5v-40
					C235.5,153.1,235.7,152.8,236,152.8z"/>
				<path class="st9" d="M276,196.3h-40c-1.7,0-3-1.3-3-3v-40c0-1.6,1.4-3,3-3h40c1.7,0,3,1.3,3,3v40C279,195,277.7,196.3,276,196.3
					z M238,191.3h36v-36h-36V191.3z"/>
			</g>
			<g>
				<path class="st8" d="M167.6,152.8h40c0.3,0,0.5,0.2,0.5,0.5v40c0,0.3-0.2,0.5-0.5,0.5h-40c-0.3,0-0.5-0.2-0.5-0.5v-40
					C167.1,153.1,167.3,152.8,167.6,152.8z"/>
				<path class="st9" d="M207.6,196.3h-40c-1.7,0-3-1.3-3-3v-40c0-1.6,1.4-3,3-3h40c1.7,0,3,1.3,3,3v40
					C210.6,195,209.3,196.3,207.6,196.3z M169.6,191.3h36v-36h-36V191.3z"/>
			</g>
			<g>
				<path class="st8" d="M304.4,152.8h40c0.3,0,0.5,0.2,0.5,0.5v40c0,0.3-0.2,0.5-0.5,0.5h-40c-0.3,0-0.5-0.2-0.5-0.5v-40
					C303.9,153.1,304.1,152.8,304.4,152.8z"/>
				<path class="st9" d="M344.4,196.3h-40c-1.7,0-3-1.3-3-3v-40c0-1.6,1.4-3,3-3h40c1.7,0,3,1.3,3,3v40
					C347.4,195,346.1,196.3,344.4,196.3z M306.4,191.3h36v-36h-36V191.3z"/>
			</g>
		</g>
		<g>
			<path id="dour" d="M276.5,441.7h-51.8v-64.4c0-1.4,1.1-2.5,2.5-2.5H274c1.4,0,2.5,1.1,2.5,2.5V441.7z"/>
			<path class="st7" d="M269.6,440.7h-37.9V384c0-0.6,0.4-1,1-1h35.9c0.6,0,1,0.4,1,1V440.7z"/>
		</g>
	</g>
</g>
</svg>
