<?xml version="1.0" encoding="utf-8"?>
<!-- Generator: Adobe Illustrator 24.2.3, SVG Export Plug-In . SVG Version: 6.00 Build 0)  -->
<svg version="1.1" id="Layer_1" xmlns="http://www.w3.org/2000/svg" xmlns:xlink="http://www.w3.org/1999/xlink" x="0px" y="0px"
	 viewBox="0 0 512 512" style="enable-background:new 0 0 512 512;" xml:space="preserve">
<style type="text/css">
	.st0{fill:#EFF1F2;}
	.st1{display:none;opacity:0.63;}
	.st2{display:inline;}
	.st3{fill:#E0E0E2;}
	.st4{stroke:#EFF1F2;stroke-width:27;stroke-linejoin:round;stroke-miterlimit:10;}
	.st5{display:inline;fill:#029299;}
	.st6{fill:#3D9AE2;}
	.st7{fill:#029299;}
	.st8{fill:#F9F9F9;}
	.st9{fill:#FF0000;stroke:#2149D8;stroke-width:16;stroke-miterlimit:10;}
</style>
<g transform="translate(0)">
	<g transform="translate(26.41 20.795)">
		<path class="st0" d="M360,269.3l-57.8-35.6c-4.2-2.6-9.7-1.3-12.3,2.9c-2.6,4.2-1.3,9.7,2.9,12.3l0,0l57.8,35.6
			c4.2,2.6,9.7,1.3,12.3-2.9C365.5,277.4,364.2,271.9,360,269.3L360,269.3z"/>
	</g>
	<g transform="translate(23.615 19.072)">
		<g transform="translate(0 0)">
			<path class="st0" d="M269.9,215.3c-5,0-9,4.1-8.9,9c0,0.7,0.1,1.3,0.2,1.9c0.6,2.3,2,4.2,4,5.4c1.4,0.9,3,1.4,4.6,1.4
				c3.1,0,6-1.6,7.6-4.2c2.5-4.4,0.9-10-3.5-12.4C272.7,215.8,271.3,215.4,269.9,215.3z"/>
		</g>
	</g>
	<g transform="translate(9.156 20.765)">
		<g transform="translate(0)">
			<path class="st0" d="M191.8,236.2c-2.7-4-8.1-5.3-12.3-2.8L122,269.6c-4.1,2.6-5.4,8.1-2.8,12.3c1.7,2.5,4.6,4,7.6,4
				c1.7,0.1,3.3-0.4,4.8-1.2l57.5-36.2C193.2,245.8,194.4,240.3,191.8,236.2z"/>
		</g>
	</g>
	<g transform="translate(17.203 19.009)">
		<g transform="translate(0 0)">
			<path class="st0" d="M206.4,214.7c-4.9,0-8.9,4-8.9,8.9s4,8.9,8.9,8.9c4.2,0,7.8-2.9,8.7-7c1.1-4.8-2-9.6-6.8-10.7
				C207.6,214.8,207,214.7,206.4,214.7z"/>
		</g>
	</g>
	<g transform="translate(0)">
		<path class="st0" d="M482.7,433c-3.2-3.7-8.9-4.1-12.6-0.9c-8.6,9-19.2,16-30.9,20.3c-13.4,3.3-27.6,1.4-39.7-5.4l46.6-156.4
			c1.2-3.9-0.5-8.1-3.9-10.2l-43.2-26v-76.1c0-4.9-4-8.9-8.9-8.9h-17.9v-26.8c0-4.9-4-8.9-8.9-8.9h-28.2V107c0-4.9-4-8.9-8.9-8.9
			h-43.4V35.5c0-4.9-4-8.9-8.9-8.9h-35.8c-4.9,0-8.9,4-8.9,8.9V98h-43.4c-4.9,0-8.9,4-8.9,8.9v26.8h-28.2c-4.9,0-8.9,4-8.9,8.9v26.8
			H122c-4.9,0-8.9,4-8.9,8.9v76.1l-43.1,26c-3.5,2.1-5.1,6.3-3.9,10.2l46.5,156c-0.8-2.7-15.1-4.4-17.6-4.7
			c-26-3.4-45.9,9.7-64.6,25.9c-3.7,3.2-4.1,8.8-0.9,12.6l0,0c3.3,3.7,8.9,4,12.6,0.9c19.3-16.8,41.1-29.5,66.6-16.8
			c23.1,11.5,47.1,16.5,71.1,3.8c19.4-10.2,38.1-19,59.8-8.7l22.3,10.6c18.9,9.1,41,8.9,59.7-0.6c11.2-7.2,23.7-12.1,36.8-14.4
			c13-0.1,25.8,3.2,37,9.7c15.2,7.5,32.7,9.1,49,4.4c14.1-5,26.8-13.1,37.3-23.7C485.5,442.4,485.9,436.8,482.7,433L482.7,433z
			 M381.2,187.2v56.3L288,187.2H381.2z M247.1,44.5H265V98h-17.9V44.5z M194.8,115.9h122.4v17.8H194.8V115.9z M130.9,187.2H224
			l-93.1,56.3V187.2z M247.1,443.4c0-1.6-12.7-4.5-14.4-4.9c-15.7-3.4-32.1-1.2-46.4,6.2c-9.7,6.3-20.5,10.7-31.8,13.2h-0.1
			c-6.8,0.8-13.8,0.3-20.4-1.6L85.1,292.1l162-98V443.4z M157.7,169.4v-17.8h196.6v17.8H157.7z M383,439.8c0,0-25.1-2.7-26.8-2.6
			c-15.1,2.9-29.5,8.4-42.6,16.4c-15.6,7.2-33.6,6.6-48.6-1.8V194.1l162,98l-40.1,134.8L383,439.8z"/>
	</g>
</g>
<g id="Layer_1_1_" class="st1">
	<g class="st2">
		<g id="not-needed">
			<path class="st3" d="M139.7,78.2h232.5v383H139.7V78.2z"/>
		</g>
		<path id="shade_out" class="st4" d="M372.2,71.4h-47.9l-136.6-0.1h-47.9c-3.8,0-6.8,3.1-6.8,6.8v166.2h0.4V468h245.3V262.8h0.4
			V78.2C379.1,74.4,376,71.4,372.2,71.4z M249.2,454.3h-6.8v-54.7h6.8V454.3z M269.7,454.3h-6.8v-54.7h6.8V454.3z M365.4,454.3
			h-82.1v-61.5c0-3.8-3.1-6.8-6.8-6.8h-41c-3.8,0-6.8,3.1-6.8,6.8v61.5h-82.1V126.1h218.8L365.4,454.3L365.4,454.3z M365.4,112.4
			H146.6V85h218.8L365.4,112.4L365.4,112.4z"/>
	</g>
	<g class="st2">
		<g>
			<path class="st3" d="M139.7,78.2h232.5v383H139.7V78.2z"/>
		</g>
		<path d="M372.2,71.4h-47.9l-136.6-0.1h-47.9c-3.8,0-6.8,3.1-6.8,6.8v166.2h0.4V468h245.3V262.8h0.4V78.2
			C379.1,74.4,376,71.4,372.2,71.4z M365.4,454.3h-82.1v-61.5c0-3.8-3.1-6.8-6.8-6.8h-41c-3.8,0-6.8,3.1-6.8,6.8v61.5h-82.1V126.1
			h218.8L365.4,454.3L365.4,454.3z"/>
	</g>
	<path id="door" class="st5" d="M272.2,454.3H240c-0.3,0-0.5-0.2-0.5-0.5v-53.7c0-0.3,0.2-0.5,0.5-0.5h32.2c0.3,0,0.5,0.2,0.5,0.5
		v53.7C272.7,454.1,272.4,454.3,272.2,454.3z"/>
	<path id="roof" class="st5" d="M364.6,112.4H147.4c-0.4,0-0.8-0.3-0.8-0.8V85.8c0-0.4,0.3-0.8,0.8-0.8h217.3c0.4,0,0.8,0.3,0.8,0.8
		v25.9C365.4,112.1,365.1,112.4,364.6,112.4z"/>
	<g id="windows" class="st2">
		<path class="st6" d="M235.5,279.6h41v41h-41V279.6z"/>
		<path class="st6" d="M167.1,279.6h41v41h-41V279.6z"/>
		<path class="st6" d="M303.9,279.6h41v41h-41V279.6z"/>
		<path class="st6" d="M235.5,218.1h41v41h-41V218.1z"/>
		<path class="st6" d="M167.1,218.1h41v41h-41V218.1z"/>
		<path class="st6" d="M303.9,218.1h41v41h-41V218.1z"/>
		<path class="st6" d="M235.5,156.5h41v41h-41V156.5z"/>
		<path class="st6" d="M167.1,156.5h41v41h-41V156.5z"/>
		<path class="st6" d="M303.9,156.5h41v41h-41V156.5z"/>
	</g>
</g>
<polygon class="st7" points="256,180 433,286 390.6,449 344.5,449 293.4,472 214.7,444 151,472 127,449 76,286 "/>
<path class="st8" d="M390.6,253.7v-66.8L359,173.5v-29.8l-33,2.6l-4-42.9l-48,2.6h-87v30.2l-36,7.5v29.8l-27,10.1V265
	c45.8-26,91.5-52,137.3-78.1"/>
<g transform="translate(0)">
	<g transform="translate(26.41 20.795)">
		<path d="M360,270.3l-57.8-35.6c-4.2-2.6-9.7-1.3-12.3,2.9c-2.6,4.2-1.3,9.7,2.9,12.3l0,0l57.8,35.6c4.2,2.6,9.7,1.3,12.3-2.9
			C365.5,278.4,364.2,272.9,360,270.3L360,270.3z"/>
	</g>
	<g transform="translate(23.615 19.072)">
		<g transform="translate(0 0)">
			<path d="M269.9,216.3c-5,0-9,4.1-8.9,9c0,0.7,0.1,1.3,0.2,1.9c0.6,2.3,2,4.2,4,5.4c1.4,0.9,3,1.4,4.6,1.4c3.1,0,6-1.6,7.6-4.2
				c2.5-4.4,0.9-10-3.5-12.4C272.7,216.8,271.3,216.4,269.9,216.3z"/>
		</g>
	</g>
	<g transform="translate(9.156 20.765)">
		<g transform="translate(0)">
			<path d="M191.8,237.2c-2.7-4-8.1-5.3-12.3-2.8L122,270.5c-4.1,2.6-5.4,8.1-2.8,12.3c1.7,2.5,4.6,4,7.6,4c1.7,0.1,3.3-0.4,4.8-1.2
				l57.5-36.2C193.2,246.8,194.4,241.3,191.8,237.2z"/>
		</g>
	</g>
	<g transform="translate(17.203 19.009)">
		<g transform="translate(0 0)">
			<path d="M206.4,215.7c-4.9,0-8.9,4-8.9,8.9s4,8.9,8.9,8.9c4.2,0,7.8-2.9,8.7-7c1.1-4.8-2-9.6-6.8-10.7
				C207.6,215.8,207,215.7,206.4,215.7z"/>
		</g>
	</g>
	<g transform="translate(0)">
		<path d="M482.7,434c-3.2-3.7-8.9-4.1-12.6-0.9c-8.6,9-19.2,16-30.9,20.3c-13.4,3.3-27.6,1.4-39.7-5.4l46.6-156.4
			c1.2-3.9-0.5-8.1-3.9-10.2l-43.2-26v-76.1c0-4.9-4-8.9-8.9-8.9h-17.9v-26.8c0-4.9-4-8.9-8.9-8.9h-28.2V108c0-4.9-4-8.9-8.9-8.9
			h-43.4V36.5c0-4.9-4-8.9-8.9-8.9h-35.8c-4.9,0-8.9,4-8.9,8.9V99h-43.4c-4.9,0-8.9,4-8.9,8.9v26.8h-28.2c-4.9,0-8.9,4-8.9,8.9v26.8
			H122c-4.9,0-8.9,4-8.9,8.9v76.1l-43.1,26c-3.5,2.1-5.1,6.3-3.9,10.2l46.5,156c-0.8-2.7-15.1-4.4-17.6-4.7
			c-26-3.4-45.9,9.7-64.6,25.9c-3.7,3.2-4.1,8.8-0.9,12.6l0,0c3.3,3.7,8.9,4,12.6,0.9c19.3-16.8,41.1-29.5,66.6-16.8
			c23.1,11.5,47.1,16.5,71.1,3.8c19.4-10.2,38.1-19,59.8-8.7l22.3,10.6c18.9,9.1,41,8.9,59.7-0.6c11.2-7.2,23.7-12.1,36.8-14.4
			c13-0.1,25.8,3.2,37,9.7c15.2,7.5,32.7,9.1,49,4.4c14.1-5,26.8-13.1,37.3-23.7C485.5,443.4,485.9,437.8,482.7,434L482.7,434z
			 M381.2,188.2v56.3L288,188.2H381.2z M247.1,45.5H265V99h-17.9V45.5z M194.8,116.8h122.4v17.8H194.8V116.8z M130.9,188.2H224
			l-93.1,56.3V188.2z M247.1,444.4c0-1.6-12.7-4.5-14.4-4.9c-15.7-3.4-32.1-1.2-46.4,6.2c-9.7,6.3-20.5,10.7-31.8,13.2h-0.1
			c-6.8,0.8-13.8,0.3-20.4-1.6L85.1,293.1l162-98V444.4z M157.7,170.4v-17.8h196.6v17.8H157.7z M383,440.8
			c0.1-2.8-25.1-2.7-26.8-2.6c-15.1,2.9-29.5,8.4-42.6,16.4c-15.6,7.2-33.6,6.6-48.6-1.8V195.1l162,98L383,440.8z"/>
	</g>
</g>
<path class="st9" d="M107,277.5"/>
<path d="M76,286"/>
<path class="st7" d="M124,246"/>
</svg>
