<?xml version="1.0" encoding="utf-8"?>
<!-- Generator: Adobe Illustrator 24.2.0, SVG Export Plug-In . SVG Version: 6.00 Build 0)  -->
<svg version="1.1" id="Capa_1" xmlns="http://www.w3.org/2000/svg" xmlns:xlink="http://www.w3.org/1999/xlink" x="0px" y="0px"
	 viewBox="0 0 512 512" style="enable-background:new 0 0 512 512;" xml:space="preserve">
<style type="text/css">
	.st0{fill:#FFFFFF;stroke:#515151;stroke-width:9;stroke-miterlimit:10;}
	.st1{fill:#54A0FC;stroke:#000000;stroke-width:5;stroke-miterlimit:10;}
	.st2{stroke:#000000;stroke-width:5;stroke-miterlimit:10;}
</style>
<circle class="st0" cx="256" cy="256" r="250.4"/>
<g>
	<rect x="79.7" y="294.7" class="st1" width="346.7" height="97.1"/>
	<path class="st2" d="M410,277.5h-28l59.1-138c2.4-5.5-0.2-12-5.8-14.4c-5.5-2.4-12,0.2-14.4,5.8l-62.8,146.6H153.7L90.9,130.9
		c-2.4-5.5-8.8-8.1-14.4-5.8c-5.5,2.4-8.1,8.8-5.8,14.4l59.1,138H102c-18.1,0-32.8,14.7-32.8,32.8V376c0,18.1,14.7,32.8,32.8,32.8
		h11.7v11.7c0,6.1,4.9,10.9,10.9,10.9c6.1,0,10.9-4.9,10.9-10.9v-11.7h240.9v11.7c0,6.1,4.9,10.9,10.9,10.9s10.9-4.9,10.9-10.9
		v-11.7H410c18.1,0,32.8-14.7,32.8-32.8v-65.7C442.9,292.3,428.1,277.5,410,277.5z M421,376.1c0,6.1-4.9,10.9-10.9,10.9H102
		c-6.1,0-10.9-4.9-10.9-10.9v-65.7c0-6.1,4.9-10.9,10.9-10.9h308c6.1,0,10.9,4.9,10.9,10.9v65.7H421z"/>
	<path class="st2" d="M232.8,221.5c-4.3,4.3-4.3,11.2,0,15.5s11.2,4.3,15.5,0c1.2-1.2,3.8-3.2,7.7-3.2s6.5,2,7.7,3.2
		c4.3,4.3,11.2,4.3,15.5,0s4.3-11.2,0-15.5c-3.6-3.6-11.4-9.6-23.2-9.6C244,211.8,236.4,217.9,232.8,221.5z"/>
	<path class="st2" d="M155.3,144.1c26.9-26.9,62.6-41.7,100.7-41.7s73.7,14.8,100.7,41.7c4.3,4.3,11.2,4.3,15.5,0s4.3-11.2,0-15.5
		c-31-31-72.3-48.2-116.1-48.2S171,97.5,140,128.6c-4.3,4.3-4.3,11.2,0,15.5C144.2,148.3,151.1,148.3,155.3,144.1z"/>
	<path class="st2" d="M341.2,175.1c4.3-4.3,4.3-11.2,0-15.5c-22.8-22.8-53-35.3-85.2-35.3s-62.4,12.6-85.2,35.3
		c-4.3,4.3-4.3,11.2,0,15.5c4.3,4.2,11.2,4.3,15.5,0c18.6-18.6,43.4-28.9,69.6-28.9s51,10.3,69.6,28.9
		C329.9,179.3,336.9,179.4,341.2,175.1z"/>
	<path class="st2" d="M310.2,206c4.3-4.3,4.3-11.2,0-15.5C295.6,176,276.4,168,256,168s-39.7,8-54.2,22.5c-4.3,4.3-4.3,11.2,0,15.5
		s11.2,4.3,15.5,0c10.4-10.4,24.1-16.1,38.7-16.1c14.6,0,28.3,5.7,38.7,16.1C299,210.3,305.9,210.3,310.2,206z"/>
	<path class="st2" d="M299.8,321.3c-6.1,0-10.9,4.9-10.9,10.9v21.9c0,6.1,4.9,10.9,10.9,10.9s10.9-4.9,10.9-10.9v-21.9
		C310.7,326.2,305.9,321.3,299.8,321.3z"/>
	<path class="st2" d="M343.6,321.3c-6.1,0-10.9,4.9-10.9,10.9v21.9c0,6.1,4.9,10.9,10.9,10.9s10.9-4.9,10.9-10.9v-21.9
		C354.5,326.2,349.6,321.3,343.6,321.3z"/>
	<path class="st2" d="M387.4,321.3c-6.1,0-10.9,4.9-10.9,10.9v21.9c0,6.1,4.9,10.9,10.9,10.9s10.9-4.9,10.9-10.9v-21.9
		C398.3,326.2,393.4,321.3,387.4,321.3z"/>
</g>
</svg>
