<?xml version="1.0" encoding="utf-8"?>
<!-- Generator: Adobe Illustrator 24.2.0, SVG Export Plug-In . SVG Version: 6.00 Build 0)  -->
<svg version="1.1" id="Capa_1" xmlns="http://www.w3.org/2000/svg" xmlns:xlink="http://www.w3.org/1999/xlink" x="0px" y="0px"
	 viewBox="0 0 512 512" style="enable-background:new 0 0 512 512;" xml:space="preserve">
<style type="text/css">
	.st0{stroke:#000000;stroke-width:5;stroke-miterlimit:10;}
	.st1{fill:#FFFFFF;}
</style>
<g>
	<rect x="16.9" y="308.6" class="st0" width="470.2" height="131.7"/>
	<path class="st0" d="M464.8,285.3h-38L507,98.1c3.3-7.5-0.3-16.3-7.9-19.5c-7.5-3.3-16.3,0.3-19.5,7.9l-85.2,198.8H117.3L32.1,86.5
		c-3.3-7.5-11.9-11-19.5-7.9c-7.5,3.3-11,11.9-7.9,19.5l80.1,187.1H47.2c-24.5,0-44.5,19.9-44.5,44.5v89.1
		c0,24.5,19.9,44.5,44.5,44.5H63v15.9c0,8.3,6.6,14.8,14.8,14.8c8.3,0,14.8-6.6,14.8-14.8v-15.9h326.7v15.9
		c0,8.3,6.6,14.8,14.8,14.8c8.1,0,14.8-6.6,14.8-14.8v-15.9h16c24.5,0,44.5-19.9,44.5-44.5v-89.1
		C509.5,305.4,489.4,285.3,464.8,285.3z M479.8,419c0,8.3-6.6,14.8-14.8,14.8H47.2c-8.3,0-14.8-6.6-14.8-14.8v-89.1
		c0-8.3,6.6-14.8,14.8-14.8h417.7c8.3,0,14.8,6.6,14.8,14.8V419L479.8,419L479.8,419z"/>
	<path class="st0" d="M224.5,209.3c-5.8,5.8-5.8,15.2,0,21s15.2,5.8,21,0c1.6-1.6,5.2-4.3,10.4-4.3s8.8,2.7,10.4,4.3
		c5.8,5.8,15.2,5.8,21,0c5.8-5.8,5.8-15.2,0-21c-4.9-4.9-15.5-13-31.5-13C239.7,196.2,229.4,204.5,224.5,209.3z"/>
	<path class="st0" d="M119.4,104.4c36.5-36.5,84.9-56.6,136.6-56.6s99.9,20.1,136.6,56.6c5.8,5.8,15.2,5.8,21,0
		c5.8-5.8,5.8-15.2,0-21c-42-42-98-65.4-157.4-65.4S140.7,41.2,98.7,83.4c-5.8,5.8-5.8,15.2,0,21
		C104.4,110.1,113.7,110.1,119.4,104.4z"/>
	<path class="st0" d="M371.5,146.4c5.8-5.8,5.8-15.2,0-21C340.6,94.5,299.7,77.5,256,77.5s-84.6,17.1-115.5,47.9
		c-5.8,5.8-5.8,15.2,0,21c5.8,5.7,15.2,5.8,21,0c25.2-25.2,58.9-39.2,94.4-39.2s69.2,14,94.4,39.2
		C356.2,152.1,365.7,152.3,371.5,146.4z"/>
	<path class="st0" d="M329.5,188.3c5.8-5.8,5.8-15.2,0-21c-19.8-19.7-45.8-30.5-73.5-30.5s-53.8,10.8-73.5,30.5
		c-5.8,5.8-5.8,15.2,0,21c5.8,5.8,15.2,5.8,21,0c14.1-14.1,32.7-21.8,52.5-21.8s38.4,7.7,52.5,21.8
		C314.3,194.2,323.7,194.2,329.5,188.3z"/>
	<path class="st1" d="M315.4,344.7c-8.3,0-14.8,6.6-14.8,14.8v29.7c0,8.3,6.6,14.8,14.8,14.8c8.1,0,14.8-6.6,14.8-14.8v-29.7
		C330.2,351.3,323.7,344.7,315.4,344.7z"/>
	<path class="st1" d="M374.8,344.7c-8.3,0-14.8,6.6-14.8,14.8v29.7c0,8.3,6.6,14.8,14.8,14.8c8.1,0,14.8-6.6,14.8-14.8v-29.7
		C389.6,351.3,382.9,344.7,374.8,344.7z"/>
	<path class="st1" d="M434.2,344.7c-8.3,0-14.8,6.6-14.8,14.8v29.7c0,8.3,6.6,14.8,14.8,14.8c8.1,0,14.8-6.6,14.8-14.8v-29.7
		C449,351.3,442.3,344.7,434.2,344.7z"/>
</g>
</svg>
